<svg width="32" height="32" viewBox="0 0 32 32" xmlns="http://www.w3.org/2000/svg" aria-hidden="true">
  <path fill="#4285f4" d="M29.5 16.3c0-1-.1-1.9-.3-2.8H16v5.3h7.6a6.5 6.5 0 0 1-2.8 4.3v3.5h4.5c2.6-2.4 4.2-6 4.2-10.3Z"/>
  <path fill="#34a853" d="M16 30c3.8 0 6.9-1.2 9.2-3.4l-4.5-3.5c-1.2.8-2.8 1.3-4.7 1.3-3.6 0-6.7-2.4-7.8-5.7H3.6v3.6A14 14 0 0 0 16 30Z"/>
  <path fill="#fbbc05" d="M8.2 18.7a8.4 8.4 0 0 1 0-5.4V9.7H3.6a14 14 0 0 0 0 12.6l4.6-3.6Z"/>
  <path fill="#ea4335" d="M16 7.6c2 0 3.9.7 5.4 2.1l4-4A13.5 13.5 0 0 0 16 2 14 14 0 0 0 3.6 9.7l4.6 3.6c1.1-3.3 4.2-5.7 7.8-5.7Z"/>
</svg>
