<svg width="178" height="115" viewBox="0 0 178 115" fill="none" xmlns="http://www.w3.org/2000/svg">
<mask id="path-1-outside-1_109_746" maskUnits="userSpaceOnUse" x="-0.646484" y="-0.507568" width="179" height="115" fill="black">
<rect fill="white" x="-0.646484" y="-0.507568" width="179" height="115"/>
<path d="M38.5529 18.4071C37.359 18.6629 36.0799 18.7908 34.7155 18.7908C33.4363 18.7908 32.3278 19.2172 31.3897 20.0699C30.537 20.8374 29.9401 21.9033 29.599 23.2677C29.2579 24.6322 28.8741 25.8686 28.4477 26.9772C31.0913 22.4576 34.4597 19.6009 38.5529 18.4071ZM71.4265 101.295C71.597 102.659 70.7016 103.426 68.7403 103.597C65.8409 104.279 62.9416 105.004 60.0422 105.772C57.2281 106.624 51.6426 106.667 43.2856 105.899C39.7894 105.047 35.6961 103.768 31.006 102.062C26.4011 100.357 21.711 97.7983 16.9356 94.3873C15.3154 92.426 13.951 89.7824 12.8424 86.4567C11.8191 83.131 11.2221 79.9758 11.0516 76.9912C10.881 75.5415 11.8191 73.9639 13.8657 72.2584C15.9976 70.5529 17.3193 68.1652 17.831 65.0953C17.1488 67.2271 15.7844 68.9753 13.7378 70.3397C11.7764 71.7041 10.5826 72.1731 10.1562 71.7467C9.38872 71.3204 9.00499 70.3397 9.00499 68.8047C9.00499 67.2698 9.00499 66.0333 9.00499 65.0953C8.32278 59.6376 7.98168 54.3079 7.98168 49.1062C7.98168 43.8191 9.00499 37.9351 11.0516 31.4542C11.5632 28.3843 13.2687 25.3996 16.1681 22.5003C19.0675 19.6009 21.6257 16.8295 23.8429 14.1859C26.657 12.651 30.1106 11.2866 34.2038 10.0927C38.3823 8.89887 41.4522 8.42986 43.4136 8.68568C44.6927 9.19733 45.1617 10.4765 44.8206 12.5231C44.5648 14.4844 43.3709 16.9147 41.239 19.8141C43.6267 18.7908 45.0338 17 45.4602 14.4418C45.9718 11.8835 47.3789 9.75162 49.6813 8.04612C50.8751 7.96084 54.2861 7.96084 59.9143 8.04612C65.6278 8.13139 69.2946 8.68568 70.9148 9.70898C73.8995 11.8409 76.2872 14.5697 78.0779 17.8954C79.8687 21.1359 81.7874 24.5042 83.834 28.0005C85.8806 31.6674 86.8613 36.1443 86.776 41.4314C86.776 42.7958 86.2217 44.885 85.1132 47.6991C84.0899 50.5132 83.1945 53.3273 82.427 56.1414C83.9619 53.3273 84.9852 51.0675 85.4969 49.362C86.0938 47.5712 86.9466 46.6332 88.0551 46.5479C88.9932 47.9123 89.6327 49.6178 89.9738 51.6644C90.3149 53.711 90.4855 55.6297 90.4855 57.4205C90.4002 60.7462 90.1444 64.1146 89.718 67.5256C89.2916 70.9366 88.5242 74.0492 87.4156 76.8632C85.7101 81.0417 83.5782 84.9644 81.0199 88.6312C78.547 92.2128 76.7988 95.4533 75.7755 98.3526C75.0933 98.8643 73.3878 98.5658 70.659 97.4572C68.0155 96.2634 66.31 95.5385 65.5425 95.2827C65.9689 95.9649 67.2053 96.9456 69.252 98.2247C71.2986 99.4186 72.0234 100.442 71.4265 101.295ZM54.6699 22.6282C54.4141 23.9073 53.5187 25.6128 51.9837 27.7447C50.4488 29.8766 48.7859 31.0704 46.9951 31.3263C45.4602 32.3496 43.8826 33.0744 42.2623 33.5008C40.6421 33.8419 39.2351 34.9505 38.0412 36.8265C36.3357 39.7259 35.2271 42.7105 34.7155 45.7804C34.2891 48.8503 33.6922 52.0482 32.9247 55.3739C32.1572 58.6143 31.1339 61.4284 29.8548 63.8161C30.6223 63.475 31.3471 62.5796 32.0293 61.13C32.7115 59.595 33.3084 59.1686 33.8201 59.8508C35.2698 62.2385 35.9946 64.8394 35.9946 67.6535C35.9946 70.3823 37.3164 72.8979 39.9599 75.2004C42.8593 66.1612 44.9485 60.533 46.2276 58.3159C45.2896 62.8355 44.181 67.7814 42.9019 73.1538C41.6228 78.4408 44.3089 81.4255 50.9604 82.1077C53.1776 80.3169 55.6506 78.9951 58.3794 78.1424C61.1934 77.2043 62.6858 75.0725 62.8563 71.7467C62.6858 67.3124 63.2827 64.1999 64.6471 62.4091C66.0968 60.533 68.1007 58.4864 70.659 56.2693C69.8062 56.2693 69.0388 56.6104 68.3566 57.2926C67.7596 57.9748 67.1627 58.2306 66.5658 58.0601C64.6897 58.5717 63.5385 57.2073 63.1121 53.9668C62.771 50.6411 62.9842 47.6138 63.7517 44.885C63.2401 41.7298 62.6431 39.1716 61.9609 37.2103C60.6818 35.5048 58.9763 33.4581 56.8444 31.0704C54.7978 28.6827 52.6233 33.5861 50.3208 45.7804C51.0031 35.2916 51.8984 29.3649 53.007 28.0005C54.1156 26.5508 54.6699 24.7601 54.6699 22.6282ZM53.3908 94.7711C52.3675 94.5152 51.3868 94.1315 50.4488 93.6198C49.5107 93.1082 48.1037 93.2787 46.2276 94.1315C43.4988 94.4726 41.1538 94.5152 39.1924 94.2594C37.3164 93.9183 34.9287 92.895 32.0293 91.1895C35.6961 94.6005 38.8087 96.5192 41.3669 96.9456C44.0105 97.3719 48.0184 96.6471 53.3908 94.7711ZM102.974 46.2921C125.146 22.2444 137.766 9.83689 140.836 9.06942C143.309 8.55777 145.953 8.21667 148.767 8.04612C151.666 7.87557 154.352 8.21666 156.825 9.06942C157.934 9.49579 158.446 10.4338 158.36 11.8835C158.275 13.2479 158.403 14.4844 158.744 15.593C159 14.8255 159.128 13.8875 159.128 12.7789C159.128 11.6703 159.639 11.0734 160.663 10.9881C162.027 10.9881 163.392 11.4145 164.756 12.2672C166.206 13.12 167.016 14.1007 167.186 15.2092C167.698 19.0466 167.442 23.7368 166.419 29.2797C165.481 34.7373 165.864 39.3421 167.57 43.0942C165.438 44.3734 163.818 45.5246 162.709 46.5479C161.601 47.4859 160.919 48.5945 160.663 49.8736C161.174 49.2767 162.07 48.7224 163.349 48.2108C164.628 47.6991 166.078 46.889 167.698 45.7804C167.527 47.7417 166.973 52.4745 166.035 59.9787C165.182 67.483 164.799 71.832 164.884 73.0259C165.225 79.0804 165.566 83.5574 165.907 86.4567C166.333 89.3561 166.76 93.8757 167.186 100.015C167.186 100.612 167.058 101.38 166.803 102.318C166.547 103.171 166.206 103.597 165.779 103.597C163.05 103.938 159.554 104.194 155.29 104.365C151.027 104.535 147.743 104.194 145.441 103.341C144.418 103 144.418 102.105 145.441 100.655C146.464 99.2054 146.848 98.0115 146.592 97.0735C146.081 95.5385 145.697 94.0036 145.441 92.4686C145.185 90.9337 144.844 89.3561 144.418 87.7358C144.077 88.9297 143.821 90.1662 143.65 91.4453C143.48 92.6392 143.309 93.7477 143.139 94.7711C142.542 96.0502 142.329 97.4572 142.499 98.9922C142.67 100.527 142.03 101.678 140.58 102.446C138.193 103.213 136.189 103.256 134.568 102.574C132.948 101.806 132.138 101.081 132.138 100.399C131.712 94.6005 131.669 90.4647 132.01 87.9917C132.351 85.5187 133.034 81.3402 134.057 75.4562C134.057 74.9446 134.611 74.6887 135.72 74.6887C136.828 74.6887 137.766 74.5608 138.534 74.305C137.852 73.4522 137.041 72.5995 136.103 71.7467C135.165 70.894 134.654 69.956 134.568 68.9326C135.762 63.3898 136.572 56.2266 136.999 47.4433C137.51 38.5747 130.305 40.4507 115.382 53.0715C112.056 51.6218 107.92 49.362 102.974 46.2921ZM151.837 69.828C151.496 70.8513 150.941 71.8746 150.174 72.8979C149.492 73.836 149.236 74.8593 149.406 75.9679C149.747 77.9292 150.472 79.8905 151.581 81.8519C152.775 83.8132 153.841 85.7745 154.779 87.7358C153.5 84.4101 152.689 81.2976 152.348 78.3982C152.007 75.4136 151.837 72.5568 151.837 69.828Z"/>
</mask>
<path d="M38.5529 18.4071C37.359 18.6629 36.0799 18.7908 34.7155 18.7908C33.4363 18.7908 32.3278 19.2172 31.3897 20.0699C30.537 20.8374 29.9401 21.9033 29.599 23.2677C29.2579 24.6322 28.8741 25.8686 28.4477 26.9772C31.0913 22.4576 34.4597 19.6009 38.5529 18.4071ZM71.4265 101.295C71.597 102.659 70.7016 103.426 68.7403 103.597C65.8409 104.279 62.9416 105.004 60.0422 105.772C57.2281 106.624 51.6426 106.667 43.2856 105.899C39.7894 105.047 35.6961 103.768 31.006 102.062C26.4011 100.357 21.711 97.7983 16.9356 94.3873C15.3154 92.426 13.951 89.7824 12.8424 86.4567C11.8191 83.131 11.2221 79.9758 11.0516 76.9912C10.881 75.5415 11.8191 73.9639 13.8657 72.2584C15.9976 70.5529 17.3193 68.1652 17.831 65.0953C17.1488 67.2271 15.7844 68.9753 13.7378 70.3397C11.7764 71.7041 10.5826 72.1731 10.1562 71.7467C9.38872 71.3204 9.00499 70.3397 9.00499 68.8047C9.00499 67.2698 9.00499 66.0333 9.00499 65.0953C8.32278 59.6376 7.98168 54.3079 7.98168 49.1062C7.98168 43.8191 9.00499 37.9351 11.0516 31.4542C11.5632 28.3843 13.2687 25.3996 16.1681 22.5003C19.0675 19.6009 21.6257 16.8295 23.8429 14.1859C26.657 12.651 30.1106 11.2866 34.2038 10.0927C38.3823 8.89887 41.4522 8.42986 43.4136 8.68568C44.6927 9.19733 45.1617 10.4765 44.8206 12.5231C44.5648 14.4844 43.3709 16.9147 41.239 19.8141C43.6267 18.7908 45.0338 17 45.4602 14.4418C45.9718 11.8835 47.3789 9.75162 49.6813 8.04612C50.8751 7.96084 54.2861 7.96084 59.9143 8.04612C65.6278 8.13139 69.2946 8.68568 70.9148 9.70898C73.8995 11.8409 76.2872 14.5697 78.0779 17.8954C79.8687 21.1359 81.7874 24.5042 83.834 28.0005C85.8806 31.6674 86.8613 36.1443 86.776 41.4314C86.776 42.7958 86.2217 44.885 85.1132 47.6991C84.0899 50.5132 83.1945 53.3273 82.427 56.1414C83.9619 53.3273 84.9852 51.0675 85.4969 49.362C86.0938 47.5712 86.9466 46.6332 88.0551 46.5479C88.9932 47.9123 89.6327 49.6178 89.9738 51.6644C90.3149 53.711 90.4855 55.6297 90.4855 57.4205C90.4002 60.7462 90.1444 64.1146 89.718 67.5256C89.2916 70.9366 88.5242 74.0492 87.4156 76.8632C85.7101 81.0417 83.5782 84.9644 81.0199 88.6312C78.547 92.2128 76.7988 95.4533 75.7755 98.3526C75.0933 98.8643 73.3878 98.5658 70.659 97.4572C68.0155 96.2634 66.31 95.5385 65.5425 95.2827C65.9689 95.9649 67.2053 96.9456 69.252 98.2247C71.2986 99.4186 72.0234 100.442 71.4265 101.295ZM54.6699 22.6282C54.4141 23.9073 53.5187 25.6128 51.9837 27.7447C50.4488 29.8766 48.7859 31.0704 46.9951 31.3263C45.4602 32.3496 43.8826 33.0744 42.2623 33.5008C40.6421 33.8419 39.2351 34.9505 38.0412 36.8265C36.3357 39.7259 35.2271 42.7105 34.7155 45.7804C34.2891 48.8503 33.6922 52.0482 32.9247 55.3739C32.1572 58.6143 31.1339 61.4284 29.8548 63.8161C30.6223 63.475 31.3471 62.5796 32.0293 61.13C32.7115 59.595 33.3084 59.1686 33.8201 59.8508C35.2698 62.2385 35.9946 64.8394 35.9946 67.6535C35.9946 70.3823 37.3164 72.8979 39.9599 75.2004C42.8593 66.1612 44.9485 60.533 46.2276 58.3159C45.2896 62.8355 44.181 67.7814 42.9019 73.1538C41.6228 78.4408 44.3089 81.4255 50.9604 82.1077C53.1776 80.3169 55.6506 78.9951 58.3794 78.1424C61.1934 77.2043 62.6858 75.0725 62.8563 71.7467C62.6858 67.3124 63.2827 64.1999 64.6471 62.4091C66.0968 60.533 68.1007 58.4864 70.659 56.2693C69.8062 56.2693 69.0388 56.6104 68.3566 57.2926C67.7596 57.9748 67.1627 58.2306 66.5658 58.0601C64.6897 58.5717 63.5385 57.2073 63.1121 53.9668C62.771 50.6411 62.9842 47.6138 63.7517 44.885C63.2401 41.7298 62.6431 39.1716 61.9609 37.2103C60.6818 35.5048 58.9763 33.4581 56.8444 31.0704C54.7978 28.6827 52.6233 33.5861 50.3208 45.7804C51.0031 35.2916 51.8984 29.3649 53.007 28.0005C54.1156 26.5508 54.6699 24.7601 54.6699 22.6282ZM53.3908 94.7711C52.3675 94.5152 51.3868 94.1315 50.4488 93.6198C49.5107 93.1082 48.1037 93.2787 46.2276 94.1315C43.4988 94.4726 41.1538 94.5152 39.1924 94.2594C37.3164 93.9183 34.9287 92.895 32.0293 91.1895C35.6961 94.6005 38.8087 96.5192 41.3669 96.9456C44.0105 97.3719 48.0184 96.6471 53.3908 94.7711ZM102.974 46.2921C125.146 22.2444 137.766 9.83689 140.836 9.06942C143.309 8.55777 145.953 8.21667 148.767 8.04612C151.666 7.87557 154.352 8.21666 156.825 9.06942C157.934 9.49579 158.446 10.4338 158.36 11.8835C158.275 13.2479 158.403 14.4844 158.744 15.593C159 14.8255 159.128 13.8875 159.128 12.7789C159.128 11.6703 159.639 11.0734 160.663 10.9881C162.027 10.9881 163.392 11.4145 164.756 12.2672C166.206 13.12 167.016 14.1007 167.186 15.2092C167.698 19.0466 167.442 23.7368 166.419 29.2797C165.481 34.7373 165.864 39.3421 167.57 43.0942C165.438 44.3734 163.818 45.5246 162.709 46.5479C161.601 47.4859 160.919 48.5945 160.663 49.8736C161.174 49.2767 162.07 48.7224 163.349 48.2108C164.628 47.6991 166.078 46.889 167.698 45.7804C167.527 47.7417 166.973 52.4745 166.035 59.9787C165.182 67.483 164.799 71.832 164.884 73.0259C165.225 79.0804 165.566 83.5574 165.907 86.4567C166.333 89.3561 166.76 93.8757 167.186 100.015C167.186 100.612 167.058 101.38 166.803 102.318C166.547 103.171 166.206 103.597 165.779 103.597C163.05 103.938 159.554 104.194 155.29 104.365C151.027 104.535 147.743 104.194 145.441 103.341C144.418 103 144.418 102.105 145.441 100.655C146.464 99.2054 146.848 98.0115 146.592 97.0735C146.081 95.5385 145.697 94.0036 145.441 92.4686C145.185 90.9337 144.844 89.3561 144.418 87.7358C144.077 88.9297 143.821 90.1662 143.65 91.4453C143.48 92.6392 143.309 93.7477 143.139 94.7711C142.542 96.0502 142.329 97.4572 142.499 98.9922C142.67 100.527 142.03 101.678 140.58 102.446C138.193 103.213 136.189 103.256 134.568 102.574C132.948 101.806 132.138 101.081 132.138 100.399C131.712 94.6005 131.669 90.4647 132.01 87.9917C132.351 85.5187 133.034 81.3402 134.057 75.4562C134.057 74.9446 134.611 74.6887 135.72 74.6887C136.828 74.6887 137.766 74.5608 138.534 74.305C137.852 73.4522 137.041 72.5995 136.103 71.7467C135.165 70.894 134.654 69.956 134.568 68.9326C135.762 63.3898 136.572 56.2266 136.999 47.4433C137.51 38.5747 130.305 40.4507 115.382 53.0715C112.056 51.6218 107.92 49.362 102.974 46.2921ZM151.837 69.828C151.496 70.8513 150.941 71.8746 150.174 72.8979C149.492 73.836 149.236 74.8593 149.406 75.9679C149.747 77.9292 150.472 79.8905 151.581 81.8519C152.775 83.8132 153.841 85.7745 154.779 87.7358C153.5 84.4101 152.689 81.2976 152.348 78.3982C152.007 75.4136 151.837 72.5568 151.837 69.828Z" fill="#A7FB25"/>
<path d="M38.5529 18.4071L40.7879 26.0699L36.8804 10.6021L38.5529 18.4071ZM31.3897 20.0699L36.7295 26.003L36.7444 25.9897L36.7591 25.9762L31.3897 20.0699ZM28.4477 26.9772L20.9976 24.1118L35.3378 31.0073L28.4477 26.9772ZM71.4265 101.295L64.8872 96.7171L63.1247 99.235L63.506 102.285L71.4265 101.295ZM68.7403 103.597L68.0488 95.6449L67.4739 95.6949L66.9121 95.8271L68.7403 103.597ZM60.0422 105.772L57.9997 98.0552L57.8628 98.0914L57.7273 98.1324L60.0422 105.772ZM43.2856 105.899L41.3942 113.654L41.9678 113.794L42.5557 113.848L43.2856 105.899ZM31.006 102.062L28.2337 109.547L28.2559 109.556L28.2782 109.564L31.006 102.062ZM16.9356 94.3873L10.7816 99.471L11.4465 100.276L12.296 100.883L16.9356 94.3873ZM12.8424 86.4567L5.21319 88.8042L5.24048 88.8929L5.26983 88.9809L12.8424 86.4567ZM11.0516 76.9912L19.0208 76.5358L19.0071 76.2965L18.9791 76.0585L11.0516 76.9912ZM13.8657 72.2584L8.87926 66.0254L8.81694 66.0752L8.75562 66.1263L13.8657 72.2584ZM17.831 65.0953L25.7045 66.4075L10.2286 62.6625L17.831 65.0953ZM13.7378 70.3397L9.31006 63.6981L9.24431 63.742L9.17943 63.7871L13.7378 70.3397ZM10.1562 71.7467L15.8004 66.1025L15.0099 65.312L14.0327 64.7691L10.1562 71.7467ZM9.00499 65.0953H16.9871V64.5983L16.9255 64.1052L9.00499 65.0953ZM11.0516 31.4542L18.6632 33.8578L18.8327 33.3214L18.9251 32.7664L11.0516 31.4542ZM23.8429 14.1859L20.0206 7.17844L18.6964 7.90075L17.727 9.0565L23.8429 14.1859ZM34.2038 10.0927L32.011 2.41769L31.9899 2.42371L31.9688 2.42985L34.2038 10.0927ZM43.4136 8.68568L46.378 1.27443L45.4438 0.900719L44.446 0.770569L43.4136 8.68568ZM44.8206 12.5231L36.947 11.2108L36.9238 11.3504L36.9055 11.4907L44.8206 12.5231ZM41.239 19.8141L34.8082 15.0855L17.4489 38.6942L44.3834 27.1509L41.239 19.8141ZM45.4602 14.4418L37.633 12.8763L37.6078 13.0025L37.5866 13.1295L45.4602 14.4418ZM49.6813 8.04612L49.1125 0.0842438L46.7962 0.24971L44.9301 1.632L49.6813 8.04612ZM59.9143 8.04612L59.7934 16.0274L59.7952 16.0274L59.9143 8.04612ZM70.9148 9.70898L75.5544 3.21363L75.3694 3.08152L75.1772 2.96015L70.9148 9.70898ZM78.0779 17.8954L71.0499 21.6797L71.0705 21.7181L71.0916 21.7563L78.0779 17.8954ZM83.834 28.0005L90.804 24.1103L90.7641 24.0388L90.7227 23.9681L83.834 28.0005ZM86.776 41.4314L78.7949 41.3027L78.7939 41.367V41.4314H86.776ZM85.1132 47.6991L77.6865 44.7735L77.6477 44.8719L77.6116 44.9713L85.1132 47.6991ZM82.427 56.1414L74.7261 54.0411L89.4345 59.9636L82.427 56.1414ZM85.4969 49.362L77.9243 46.8378L77.8861 46.9525L77.8514 47.0683L85.4969 49.362ZM88.0551 46.5479L94.6328 42.0258L92.0277 38.2366L87.443 38.5892L88.0551 46.5479ZM89.9738 51.6644L97.8474 50.3522L97.8474 50.3521L89.9738 51.6644ZM90.4855 57.4205L98.465 57.6251L98.4677 57.5228V57.4205H90.4855ZM89.718 67.5256L97.6385 68.5157V68.5157L89.718 67.5256ZM87.4156 76.8633L94.8058 79.8797L94.8243 79.8344L94.8423 79.7889L87.4156 76.8633ZM81.0199 88.6312L74.4736 84.064L74.4625 84.0799L74.4514 84.0958L81.0199 88.6312ZM75.7755 98.3526L80.5648 104.738L82.4982 103.288L83.3026 101.009L75.7755 98.3526ZM70.659 97.4572L67.3736 104.732L67.513 104.795L67.6547 104.852L70.659 97.4572ZM65.5425 95.2827L68.0667 87.7102L47.0099 80.6912L58.7736 99.5132L65.5425 95.2827ZM69.252 98.2247L65.0214 104.994L65.1247 105.058L65.23 105.12L69.252 98.2247ZM54.6699 22.6282H62.652L46.8427 21.0628L54.6699 22.6282ZM46.9951 31.3263L45.8663 23.4243L44.0739 23.6804L42.5674 24.6847L46.9951 31.3263ZM42.2623 33.5008L43.9067 41.3117L44.1014 41.2707L44.2937 41.2201L42.2623 33.5008ZM38.0412 36.8265L31.307 32.5411L31.232 32.659L31.1611 32.7794L38.0412 36.8265ZM34.7155 45.7804L26.8419 44.4682L26.8241 44.575L26.8092 44.6823L34.7155 45.7804ZM32.9247 55.3739L40.692 57.2135L40.6973 57.1911L40.7024 57.1687L32.9247 55.3739ZM29.8548 63.8161L22.8187 60.0468L11.8277 80.5632L33.0967 71.1103L29.8548 63.8161ZM32.0293 61.13L39.2517 64.5287L39.2885 64.4507L39.3235 64.3718L32.0293 61.13ZM33.8201 59.8508L40.6431 55.7083L40.4403 55.3742L40.2058 55.0615L33.8201 59.8508ZM39.9599 75.2004L34.7174 81.2196L43.8583 89.181L47.5606 77.6384L39.9599 75.2004ZM46.2276 58.3159L54.0432 59.938L39.3136 54.327L46.2276 58.3159ZM42.9019 73.1538L50.6602 75.0308L50.6636 75.0167L50.667 75.0026L42.9019 73.1538ZM50.9604 82.1077L50.146 90.0482L53.4175 90.3837L55.9759 88.3173L50.9604 82.1077ZM58.3794 78.1424L60.7602 85.7612L60.8321 85.7387L60.9035 85.7149L58.3794 78.1424ZM62.8563 71.7467L70.828 72.1555L70.8463 71.7979L70.8326 71.44L62.8563 71.7467ZM64.6471 62.4091L58.3309 57.5284L58.3143 57.5499L58.2978 57.5716L64.6471 62.4091ZM70.659 56.2693L75.8868 62.3013L92.057 48.2871H70.659V56.2693ZM68.3566 57.2926L62.7123 51.6483L62.5244 51.8363L62.3494 52.0363L68.3566 57.2926ZM66.5658 58.0601L68.7586 50.385L66.6157 49.7728L64.4655 50.3592L66.5658 58.0601ZM63.1121 53.9668L55.1716 54.7812L55.1833 54.8949L55.1982 55.0081L63.1121 53.9668ZM63.7517 44.885L71.4357 47.0462L71.9133 45.3483L71.6309 43.6073L63.7517 44.885ZM61.9609 37.2103L69.5 34.5879L69.092 33.4147L68.3466 32.421L61.9609 37.2103ZM56.8444 31.0704L50.7839 36.2652L50.8364 36.3265L50.8902 36.3867L56.8444 31.0704ZM50.3209 45.7804L42.3555 45.2623L58.1644 47.2614L50.3209 45.7804ZM53.007 28.0005L59.2021 33.034L59.2763 32.9427L59.3477 32.8493L53.007 28.0005ZM53.3908 94.771L56.0223 102.307L81.232 93.5036L55.3267 87.0272L53.3908 94.771ZM50.4488 93.6198L46.6265 100.627H46.6265L50.4488 93.6198ZM46.2276 94.1315L47.2177 102.052L48.424 101.901L49.5307 101.398L46.2276 94.1315ZM39.1924 94.2594L37.7645 102.113L37.9615 102.149L38.16 102.175L39.1924 94.2594ZM32.0293 91.1895L36.0764 84.3094L26.5926 97.0339L32.0293 91.1895ZM41.3669 96.9456L40.0547 104.819L40.0753 104.823L40.0959 104.826L41.3669 96.9456ZM38.5529 18.4071L36.8804 10.6021C36.296 10.7273 35.5823 10.8086 34.7155 10.8086V18.7908V26.773C36.5774 26.773 38.422 26.5985 40.2254 26.212L38.5529 18.4071ZM34.7155 18.7908V10.8086C31.4705 10.8086 28.4423 11.9619 26.0204 14.1636L31.3897 20.0699L36.7591 25.9762C36.546 26.17 36.2196 26.3955 35.7901 26.5607C35.3618 26.7254 34.9798 26.773 34.7155 26.773V18.7908ZM31.3897 20.0699L26.05 14.1368C23.7724 16.1866 22.4939 18.7769 21.8551 21.3318L29.599 23.2677L37.3428 25.2037C37.3671 25.1067 37.3617 25.176 37.267 25.3451C37.1665 25.5245 36.9933 25.7657 36.7295 26.003L31.3897 20.0699ZM29.599 23.2677L21.8551 21.3318C21.579 22.4363 21.2884 23.3559 20.9976 24.1118L28.4477 26.9772L35.8979 29.8427C36.4599 28.3814 36.9367 26.828 37.3428 25.2037L29.599 23.2677ZM28.4477 26.9772L35.3378 31.0073C37.1986 27.826 39.0784 26.5685 40.7879 26.0699L38.5529 18.4071L36.3179 10.7442C29.8409 12.6333 24.984 17.0892 21.5576 22.9472L28.4477 26.9772ZM71.4265 101.295L63.506 102.285C63.4313 101.688 63.4225 100.739 63.7972 99.6365C64.1894 98.4831 64.8796 97.526 65.6881 96.833C67.1034 95.6199 68.3742 95.6166 68.0488 95.6449L68.7403 103.597L69.4318 111.549C71.0677 111.407 73.7669 110.935 76.0776 108.954C78.9228 106.515 79.7006 103.133 79.347 100.305L71.4265 101.295ZM68.7403 103.597L66.9121 95.8271C63.9405 96.5263 60.9697 97.269 57.9997 98.0552L60.0422 105.772L62.0848 113.488C64.9135 112.739 67.7414 112.032 70.5685 111.367L68.7403 103.597ZM60.0422 105.772L57.7273 98.1324C57.4402 98.2195 56.2659 98.4415 53.6816 98.4612C51.2484 98.4798 48.0476 98.321 44.0156 97.9508L43.2856 105.899L42.5557 113.848C46.8807 114.245 50.6511 114.449 53.8034 114.425C56.8046 114.402 59.8302 114.176 62.3571 113.411L60.0422 105.772ZM43.2856 105.899L45.1771 98.1446C42.0485 97.3816 38.2462 96.2014 33.7338 94.5605L31.006 102.062L28.2782 109.564C33.1461 111.334 37.5302 112.712 41.3942 113.654L43.2856 105.899ZM31.006 102.062L33.7783 94.5768C29.9512 93.1594 25.8831 90.9691 21.5751 87.892L16.9356 94.3873L12.296 100.883C17.5389 104.628 22.8511 107.554 28.2337 109.547L31.006 102.062ZM16.9356 94.3873L23.0895 89.3036C22.2839 88.3284 21.3219 86.6534 20.4149 83.9325L12.8424 86.4567L5.26983 88.9809C6.58002 92.9115 8.34681 96.5236 10.7816 99.471L16.9356 94.3873ZM12.8424 86.4567L20.4716 84.1093C19.6073 81.3005 19.1492 78.7837 19.0208 76.5358L11.0516 76.9912L3.08243 77.4465C3.29508 81.1679 4.03082 84.9615 5.21319 88.8042L12.8424 86.4567ZM11.0516 76.9912L18.9791 76.0585C19.1466 77.4826 18.6814 78.4752 18.4882 78.8002C18.3361 79.056 18.3624 78.9016 18.9757 78.3904L13.8657 72.2584L8.75562 66.1263C6.30079 68.172 2.44929 72.1879 3.12411 77.9238L11.0516 76.9912ZM13.8657 72.2584L18.8521 78.4914C22.735 75.3851 24.918 71.1269 25.7045 66.4075L17.831 65.0953L9.95742 63.783C9.72069 65.2034 9.26008 65.7207 8.87926 66.0254L13.8657 72.2584ZM17.831 65.0953L10.2286 62.6625C10.1527 62.8996 10.0106 63.2311 9.31006 63.6981L13.7378 70.3397L18.1655 76.9812C21.5582 74.7195 24.1448 71.5547 25.4334 67.528L17.831 65.0953ZM13.7378 70.3397L9.17943 63.7871C8.35182 64.3628 8.17158 64.3958 8.45268 64.2853C8.57468 64.2374 9.30455 63.9483 10.4099 63.9192C11.6143 63.8875 13.8809 64.1829 15.8004 66.1025L10.1562 71.7467L4.51196 77.391C6.64473 79.5237 9.22041 79.9204 10.8299 79.878C12.3403 79.8383 13.5711 79.4266 14.2901 79.1442C15.765 78.5647 17.1624 77.681 18.2961 76.8923L13.7378 70.3397ZM10.1562 71.7467L14.0327 64.7691C15.5794 65.6284 16.382 66.9035 16.7261 67.7828C17.0226 68.5405 16.9871 68.9926 16.9871 68.8047H9.00499H1.02283C1.02283 71.0208 1.50155 76.0699 6.27973 78.7244L10.1562 71.7467ZM9.00499 68.8047H16.9871C16.9871 68.8017 16.9871 68.7987 16.9871 68.7957C16.9871 68.7928 16.9871 68.7898 16.9871 68.7868C16.9871 68.7838 16.9871 68.7808 16.9871 68.7778C16.9871 68.7748 16.9871 68.7718 16.9871 68.7688C16.9871 68.7658 16.9871 68.7628 16.9871 68.7599C16.9871 68.7569 16.9871 68.7539 16.9871 68.7509C16.9871 68.7479 16.9871 68.7449 16.9871 68.7419C16.9871 68.739 16.9871 68.736 16.9871 68.733C16.9871 68.73 16.9871 68.7271 16.9871 68.7241C16.9871 68.7211 16.9871 68.7181 16.9871 68.7151C16.9871 68.7122 16.9871 68.7092 16.9871 68.7062C16.9871 68.7032 16.9871 68.7003 16.9871 68.6973C16.9871 68.6943 16.9871 68.6914 16.9871 68.6884C16.9871 68.6854 16.9871 68.6825 16.9871 68.6795C16.9871 68.6765 16.9871 68.6736 16.9871 68.6706C16.9871 68.6676 16.9871 68.6647 16.9871 68.6617C16.9871 68.6588 16.9871 68.6558 16.9871 68.6528C16.9871 68.6499 16.9871 68.6469 16.9871 68.644C16.9871 68.641 16.9871 68.638 16.9871 68.6351C16.9871 68.6321 16.9871 68.6292 16.9871 68.6262C16.9871 68.6233 16.9871 68.6203 16.9871 68.6174C16.9871 68.6144 16.9871 68.6115 16.9871 68.6085C16.9871 68.6056 16.9871 68.6026 16.9871 68.5997C16.9871 68.5967 16.9871 68.5938 16.9871 68.5909C16.9871 68.5879 16.9871 68.585 16.9871 68.582C16.9871 68.5791 16.9871 68.5761 16.9871 68.5732C16.9871 68.5703 16.9871 68.5673 16.9871 68.5644C16.9871 68.5615 16.9871 68.5585 16.9871 68.5556C16.9871 68.5527 16.9871 68.5497 16.9871 68.5468C16.9871 68.5439 16.9871 68.5409 16.9871 68.538C16.9871 68.5351 16.9871 68.5321 16.9871 68.5292C16.9871 68.5263 16.9871 68.5234 16.9871 68.5204C16.9871 68.5175 16.9871 68.5146 16.9871 68.5117C16.9871 68.5087 16.9871 68.5058 16.9871 68.5029C16.9871 68.5 16.9871 68.4971 16.9871 68.4941C16.9871 68.4912 16.9871 68.4883 16.9871 68.4854C16.9871 68.4825 16.9871 68.4796 16.9871 68.4766C16.9871 68.4737 16.9871 68.4708 16.9871 68.4679C16.9871 68.465 16.9871 68.4621 16.9871 68.4592C16.9871 68.4563 16.9871 68.4534 16.9871 68.4504C16.9871 68.4475 16.9871 68.4446 16.9871 68.4417C16.9871 68.4388 16.9871 68.4359 16.9871 68.433C16.9871 68.4301 16.9871 68.4272 16.9871 68.4243C16.9871 68.4214 16.9871 68.4185 16.9871 68.4156C16.9871 68.4127 16.9871 68.4098 16.9871 68.4069C16.9871 68.404 16.9871 68.4011 16.9871 68.3982C16.9871 68.3954 16.9871 68.3925 16.9871 68.3896C16.9871 68.3867 16.9871 68.3838 16.9871 68.3809C16.9871 68.378 16.9871 68.3751 16.9871 68.3722C16.9871 68.3694 16.9871 68.3665 16.9871 68.3636C16.9871 68.3607 16.9871 68.3578 16.9871 68.3549C16.9871 68.3521 16.9871 68.3492 16.9871 68.3463C16.9871 68.3434 16.9871 68.3405 16.9871 68.3377C16.9871 68.3348 16.9871 68.3319 16.9871 68.329C16.9871 68.3262 16.9871 68.3233 16.9871 68.3204C16.9871 68.3175 16.9871 68.3147 16.9871 68.3118C16.9871 68.3089 16.9871 68.306 16.9871 68.3032C16.9871 68.3003 16.9871 68.2974 16.9871 68.2946C16.9871 68.2917 16.9871 68.2888 16.9871 68.286C16.9871 68.2831 16.9871 68.2803 16.9871 68.2774C16.9871 68.2745 16.9871 68.2717 16.9871 68.2688C16.9871 68.266 16.9871 68.2631 16.9871 68.2602C16.9871 68.2574 16.9871 68.2545 16.9871 68.2517C16.9871 68.2488 16.9871 68.246 16.9871 68.2431C16.9871 68.2403 16.9871 68.2374 16.9871 68.2346C16.9871 68.2317 16.9871 68.2289 16.9871 68.226C16.9871 68.2232 16.9871 68.2203 16.9871 68.2175C16.9871 68.2146 16.9871 68.2118 16.9871 68.2089C16.9871 68.2061 16.9871 68.2033 16.9871 68.2004C16.9871 68.1976 16.9871 68.1947 16.9871 68.1919C16.9871 68.1891 16.9871 68.1862 16.9871 68.1834C16.9871 68.1806 16.9871 68.1777 16.9871 68.1749C16.9871 68.1721 16.9871 68.1692 16.9871 68.1664C16.9871 68.1636 16.9871 68.1607 16.9871 68.1579C16.9871 68.1551 16.9871 68.1522 16.9871 68.1494C16.9871 68.1466 16.9871 68.1438 16.9871 68.1409C16.9871 68.1381 16.9871 68.1353 16.9871 68.1325C16.9871 68.1296 16.9871 68.1268 16.9871 68.124C16.9871 68.1212 16.9871 68.1184 16.9871 68.1155C16.9871 68.1127 16.9871 68.1099 16.9871 68.1071C16.9871 68.1043 16.9871 68.1015 16.9871 68.0986C16.9871 68.0958 16.9871 68.093 16.9871 68.0902C16.9871 68.0874 16.9871 68.0846 16.9871 68.0818C16.9871 68.079 16.9871 68.0762 16.9871 68.0733C16.9871 68.0705 16.9871 68.0677 16.9871 68.0649C16.9871 68.0621 16.9871 68.0593 16.9871 68.0565C16.9871 68.0537 16.9871 68.0509 16.9871 68.0481C16.9871 68.0453 16.9871 68.0425 16.9871 68.0397C16.9871 68.0369 16.9871 68.0341 16.9871 68.0313C16.9871 68.0285 16.9871 68.0257 16.9871 68.0229C16.9871 68.0202 16.9871 68.0174 16.9871 68.0146C16.9871 68.0118 16.9871 68.009 16.9871 68.0062C16.9871 68.0034 16.9871 68.0006 16.9871 67.9978C16.9871 67.9951 16.9871 67.9923 16.9871 67.9895C16.9871 67.9867 16.9871 67.9839 16.9871 67.9811C16.9871 67.9784 16.9871 67.9756 16.9871 67.9728C16.9871 67.97 16.9871 67.9672 16.9871 67.9645C16.9871 67.9617 16.9871 67.9589 16.9871 67.9561C16.9871 67.9534 16.9871 67.9506 16.9871 67.9478C16.9871 67.945 16.9871 67.9423 16.9871 67.9395C16.9871 67.9367 16.9871 67.934 16.9871 67.9312C16.9871 67.9284 16.9871 67.9257 16.9871 67.9229C16.9871 67.9201 16.9871 67.9174 16.9871 67.9146C16.9871 67.9118 16.9871 67.9091 16.9871 67.9063C16.9871 67.9036 16.9871 67.9008 16.9871 67.898C16.9871 67.8953 16.9871 67.8925 16.9871 67.8898C16.9871 67.887 16.9871 67.8842 16.9871 67.8815C16.9871 67.8787 16.9871 67.876 16.9871 67.8732C16.9871 67.8705 16.9871 67.8677 16.9871 67.865C16.9871 67.8622 16.9871 67.8595 16.9871 67.8567C16.9871 67.854 16.9871 67.8512 16.9871 67.8485C16.9871 67.8458 16.9871 67.843 16.9871 67.8403C16.9871 67.8375 16.9871 67.8348 16.9871 67.832C16.9871 67.8293 16.9871 67.8266 16.9871 67.8238C16.9871 67.8211 16.9871 67.8183 16.9871 67.8156C16.9871 67.8129 16.9871 67.8101 16.9871 67.8074C16.9871 67.8047 16.9871 67.8019 16.9871 67.7992C16.9871 67.7965 16.9871 67.7937 16.9871 67.791C16.9871 67.7883 16.9871 67.7856 16.9871 67.7828C16.9871 67.7801 16.9871 67.7774 16.9871 67.7747C16.9871 67.7719 16.9871 67.7692 16.9871 67.7665C16.9871 67.7638 16.9871 67.761 16.9871 67.7583C16.9871 67.7556 16.9871 67.7529 16.9871 67.7502C16.9871 67.7475 16.9871 67.7447 16.9871 67.742C16.9871 67.7393 16.9871 67.7366 16.9871 67.7339C16.9871 67.7312 16.9871 67.7284 16.9871 67.7257C16.9871 67.723 16.9871 67.7203 16.9871 67.7176C16.9871 67.7149 16.9871 67.7122 16.9871 67.7095C16.9871 67.7068 16.9871 67.7041 16.9871 67.7014C16.9871 67.6987 16.9871 67.696 16.9871 67.6933C16.9871 67.6906 16.9871 67.6879 16.9871 67.6852C16.9871 67.6824 16.9871 67.6798 16.9871 67.6771C16.9871 67.6744 16.9871 67.6717 16.9871 67.669C16.9871 67.6663 16.9871 67.6636 16.9871 67.6609C16.9871 67.6582 16.9871 67.6555 16.9871 67.6528C16.9871 67.6501 16.9871 67.6474 16.9871 67.6447C16.9871 67.6421 16.9871 67.6394 16.9871 67.6367C16.9871 67.634 16.9871 67.6313 16.9871 67.6286C16.9871 67.6259 16.9871 67.6233 16.9871 67.6206C16.9871 67.6179 16.9871 67.6152 16.9871 67.6125C16.9871 67.6099 16.9871 67.6072 16.9871 67.6045C16.9871 67.6018 16.9871 67.5992 16.9871 67.5965C16.9871 67.5938 16.9871 67.5911 16.9871 67.5885C16.9871 67.5858 16.9871 67.5831 16.9871 67.5804C16.9871 67.5778 16.9871 67.5751 16.9871 67.5724C16.9871 67.5698 16.9871 67.5671 16.9871 67.5644C16.9871 67.5618 16.9871 67.5591 16.9871 67.5564C16.9871 67.5538 16.9871 67.5511 16.9871 67.5485C16.9871 67.5458 16.9871 67.5431 16.9871 67.5405C16.9871 67.5378 16.9871 67.5352 16.9871 67.5325C16.9871 67.5298 16.9871 67.5272 16.9871 67.5245C16.9871 67.5219 16.9871 67.5192 16.9871 67.5166C16.9871 67.5139 16.9871 67.5113 16.9871 67.5086C16.9871 67.506 16.9871 67.5033 16.9871 67.5007C16.9871 67.498 16.9871 67.4954 16.9871 67.4927C16.9871 67.4901 16.9871 67.4875 16.9871 67.4848C16.9871 67.4822 16.9871 67.4795 16.9871 67.4769C16.9871 67.4743 16.9871 67.4716 16.9871 67.469C16.9871 67.4663 16.9871 67.4637 16.9871 67.4611C16.9871 67.4584 16.9871 67.4558 16.9871 67.4532C16.9871 67.4505 16.9871 67.4479 16.9871 67.4453C16.9871 67.4426 16.9871 67.44 16.9871 67.4374C16.9871 67.4347 16.9871 67.4321 16.9871 67.4295C16.9871 67.4269 16.9871 67.4242 16.9871 67.4216C16.9871 67.419 16.9871 67.4164 16.9871 67.4137C16.9871 67.4111 16.9871 67.4085 16.9871 67.4059C16.9871 67.4033 16.9871 67.4006 16.9871 67.398C16.9871 67.3954 16.9871 67.3928 16.9871 67.3902C16.9871 67.3876 16.9871 67.3849 16.9871 67.3823C16.9871 67.3797 16.9871 67.3771 16.9871 67.3745C16.9871 67.3719 16.9871 67.3693 16.9871 67.3667C16.9871 67.3641 16.9871 67.3614 16.9871 67.3588C16.9871 67.3562 16.9871 67.3536 16.9871 67.351C16.9871 67.3484 16.9871 67.3458 16.9871 67.3432C16.9871 67.3406 16.9871 67.338 16.9871 67.3354C16.9871 67.3328 16.9871 67.3302 16.9871 67.3276C16.9871 67.325 16.9871 67.3224 16.9871 67.3198C16.9871 67.3172 16.9871 67.3146 16.9871 67.312C16.9871 67.3095 16.9871 67.3069 16.9871 67.3043C16.9871 67.3017 16.9871 67.2991 16.9871 67.2965C16.9871 67.2939 16.9871 67.2913 16.9871 67.2887C16.9871 67.2862 16.9871 67.2836 16.9871 67.281C16.9871 67.2784 16.9871 67.2758 16.9871 67.2732C16.9871 67.2707 16.9871 67.2681 16.9871 67.2655C16.9871 67.2629 16.9871 67.2603 16.9871 67.2578C16.9871 67.2552 16.9871 67.2526 16.9871 67.25C16.9871 67.2475 16.9871 67.2449 16.9871 67.2423C16.9871 67.2397 16.9871 67.2372 16.9871 67.2346C16.9871 67.232 16.9871 67.2295 16.9871 67.2269C16.9871 67.2243 16.9871 67.2218 16.9871 67.2192C16.9871 67.2166 16.9871 67.2141 16.9871 67.2115C16.9871 67.209 16.9871 67.2064 16.9871 67.2038C16.9871 67.2013 16.9871 67.1987 16.9871 67.1962C16.9871 67.1936 16.9871 67.191 16.9871 67.1885C16.9871 67.1859 16.9871 67.1834 16.9871 67.1808C16.9871 67.1783 16.9871 67.1757 16.9871 67.1732C16.9871 67.1706 16.9871 67.168 16.9871 67.1655C16.9871 67.1629 16.9871 67.1604 16.9871 67.1579C16.9871 67.1553 16.9871 67.1528 16.9871 67.1502C16.9871 67.1477 16.9871 67.1451 16.9871 67.1426C16.9871 67.14 16.9871 67.1375 16.9871 67.135C16.9871 67.1324 16.9871 67.1299 16.9871 67.1273C16.9871 67.1248 16.9871 67.1223 16.9871 67.1197C16.9871 67.1172 16.9871 67.1147 16.9871 67.1121C16.9871 67.1096 16.9871 67.1071 16.9871 67.1045C16.9871 67.102 16.9871 67.0995 16.9871 67.0969C16.9871 67.0944 16.9871 67.0919 16.9871 67.0894C16.9871 67.0868 16.9871 67.0843 16.9871 67.0818C16.9871 67.0793 16.9871 67.0767 16.9871 67.0742C16.9871 67.0717 16.9871 67.0692 16.9871 67.0667C16.9871 67.0641 16.9871 67.0616 16.9871 67.0591C16.9871 67.0566 16.9871 67.0541 16.9871 67.0515C16.9871 67.049 16.9871 67.0465 16.9871 67.044C16.9871 67.0415 16.9871 67.039 16.9871 67.0365C16.9871 67.034 16.9871 67.0314 16.9871 67.0289C16.9871 67.0264 16.9871 67.0239 16.9871 67.0214C16.9871 67.0189 16.9871 67.0164 16.9871 67.0139C16.9871 67.0114 16.9871 67.0089 16.9871 67.0064C16.9871 67.0039 16.9871 67.0014 16.9871 66.9989C16.9871 66.9964 16.9871 66.9939 16.9871 66.9914C16.9871 66.9889 16.9871 66.9864 16.9871 66.9839C16.9871 66.9814 16.9871 66.9789 16.9871 66.9764C16.9871 66.9739 16.9871 66.9715 16.9871 66.969C16.9871 66.9665 16.9871 66.964 16.9871 66.9615C16.9871 66.959 16.9871 66.9565 16.9871 66.954C16.9871 66.9515 16.9871 66.9491 16.9871 66.9466C16.9871 66.9441 16.9871 66.9416 16.9871 66.9391C16.9871 66.9366 16.9871 66.9342 16.9871 66.9317C16.9871 66.9292 16.9871 66.9267 16.9871 66.9243C16.9871 66.9218 16.9871 66.9193 16.9871 66.9168C16.9871 66.9144 16.9871 66.9119 16.9871 66.9094C16.9871 66.9069 16.9871 66.9045 16.9871 66.902C16.9871 66.8995 16.9871 66.8971 16.9871 66.8946C16.9871 66.8921 16.9871 66.8897 16.9871 66.8872C16.9871 66.8847 16.9871 66.8823 16.9871 66.8798C16.9871 66.8773 16.9871 66.8749 16.9871 66.8724C16.9871 66.87 16.9871 66.8675 16.9871 66.865C16.9871 66.8626 16.9871 66.8601 16.9871 66.8577C16.9871 66.8552 16.9871 66.8528 16.9871 66.8503C16.9871 66.8479 16.9871 66.8454 16.9871 66.8429C16.9871 66.8405 16.9871 66.838 16.9871 66.8356C16.9871 66.8331 16.9871 66.8307 16.9871 66.8282C16.9871 66.8258 16.9871 66.8234 16.9871 66.8209C16.9871 66.8185 16.9871 66.816 16.9871 66.8136C16.9871 66.8111 16.9871 66.8087 16.9871 66.8063C16.9871 66.8038 16.9871 66.8014 16.9871 66.7989C16.9871 66.7965 16.9871 66.7941 16.9871 66.7916C16.9871 66.7892 16.9871 66.7868 16.9871 66.7843C16.9871 66.7819 16.9871 66.7795 16.9871 66.777C16.9871 66.7746 16.9871 66.7722 16.9871 66.7697C16.9871 66.7673 16.9871 66.7649 16.9871 66.7625C16.9871 66.76 16.9871 66.7576 16.9871 66.7552C16.9871 66.7528 16.9871 66.7503 16.9871 66.7479C16.9871 66.7455 16.9871 66.7431 16.9871 66.7407C16.9871 66.7382 16.9871 66.7358 16.9871 66.7334C16.9871 66.731 16.9871 66.7286 16.9871 66.7262C16.9871 66.7237 16.9871 66.7213 16.9871 66.7189C16.9871 66.7165 16.9871 66.7141 16.9871 66.7117C16.9871 66.7093 16.9871 66.7069 16.9871 66.7044C16.9871 66.702 16.9871 66.6996 16.9871 66.6972C16.9871 66.6948 16.9871 66.6924 16.9871 66.69C16.9871 66.6876 16.9871 66.6852 16.9871 66.6828C16.9871 66.6804 16.9871 66.678 16.9871 66.6756C16.9871 66.6732 16.9871 66.6708 16.9871 66.6684C16.9871 66.666 16.9871 66.6636 16.9871 66.6612C16.9871 66.6588 16.9871 66.6564 16.9871 66.654C16.9871 66.6516 16.9871 66.6493 16.9871 66.6469C16.9871 66.6445 16.9871 66.6421 16.9871 66.6397C16.9871 66.6373 16.9871 66.6349 16.9871 66.6325C16.9871 66.6302 16.9871 66.6278 16.9871 66.6254C16.9871 66.623 16.9871 66.6206 16.9871 66.6182C16.9871 66.6159 16.9871 66.6135 16.9871 66.6111C16.9871 66.6087 16.9871 66.6064 16.9871 66.604C16.9871 66.6016 16.9871 66.5992 16.9871 66.5968C16.9871 66.5945 16.9871 66.5921 16.9871 66.5897C16.9871 66.5874 16.9871 66.585 16.9871 66.5826C16.9871 66.5802 16.9871 66.5779 16.9871 66.5755C16.9871 66.5731 16.9871 66.5708 16.9871 66.5684C16.9871 66.566 16.9871 66.5637 16.9871 66.5613C16.9871 66.559 16.9871 66.5566 16.9871 66.5542C16.9871 66.5519 16.9871 66.5495 16.9871 66.5472C16.9871 66.5448 16.9871 66.5424 16.9871 66.5401C16.9871 66.5377 16.9871 66.5354 16.9871 66.533C16.9871 66.5307 16.9871 66.5283 16.9871 66.526C16.9871 66.5236 16.9871 66.5213 16.9871 66.5189C16.9871 66.5166 16.9871 66.5142 16.9871 66.5119C16.9871 66.5095 16.9871 66.5072 16.9871 66.5048C16.9871 66.5025 16.9871 66.5002 16.9871 66.4978C16.9871 66.4955 16.9871 66.4931 16.9871 66.4908C16.9871 66.4884 16.9871 66.4861 16.9871 66.4838C16.9871 66.4814 16.9871 66.4791 16.9871 66.4768C16.9871 66.4744 16.9871 66.4721 16.9871 66.4698C16.9871 66.4674 16.9871 66.4651 16.9871 66.4628C16.9871 66.4604 16.9871 66.4581 16.9871 66.4558C16.9871 66.4534 16.9871 66.4511 16.9871 66.4488C16.9871 66.4465 16.9871 66.4441 16.9871 66.4418C16.9871 66.4395 16.9871 66.4372 16.9871 66.4348C16.9871 66.4325 16.9871 66.4302 16.9871 66.4279C16.9871 66.4256 16.9871 66.4232 16.9871 66.4209C16.9871 66.4186 16.9871 66.4163 16.9871 66.414C16.9871 66.4117 16.9871 66.4093 16.9871 66.407C16.9871 66.4047 16.9871 66.4024 16.9871 66.4001C16.9871 66.3978 16.9871 66.3955 16.9871 66.3932C16.9871 66.3909 16.9871 66.3886 16.9871 66.3863C16.9871 66.384 16.9871 66.3817 16.9871 66.3793C16.9871 66.377 16.9871 66.3747 16.9871 66.3724C16.9871 66.3701 16.9871 66.3678 16.9871 66.3655C16.9871 66.3632 16.9871 66.3609 16.9871 66.3586C16.9871 66.3563 16.9871 66.354 16.9871 66.3518C16.9871 66.3495 16.9871 66.3472 16.9871 66.3449C16.9871 66.3426 16.9871 66.3403 16.9871 66.338C16.9871 66.3357 16.9871 66.3334 16.9871 66.3311C16.9871 66.3288 16.9871 66.3266 16.9871 66.3243C16.9871 66.322 16.9871 66.3197 16.9871 66.3174C16.9871 66.3151 16.9871 66.3129 16.9871 66.3106C16.9871 66.3083 16.9871 66.306 16.9871 66.3037C16.9871 66.3015 16.9871 66.2992 16.9871 66.2969C16.9871 66.2946 16.9871 66.2924 16.9871 66.2901C16.9871 66.2878 16.9871 66.2855 16.9871 66.2833C16.9871 66.281 16.9871 66.2787 16.9871 66.2765C16.9871 66.2742 16.9871 66.2719 16.9871 66.2697C16.9871 66.2674 16.9871 66.2651 16.9871 66.2629C16.9871 66.2606 16.9871 66.2583 16.9871 66.2561C16.9871 66.2538 16.9871 66.2515 16.9871 66.2493C16.9871 66.247 16.9871 66.2448 16.9871 66.2425C16.9871 66.2402 16.9871 66.238 16.9871 66.2357C16.9871 66.2335 16.9871 66.2312 16.9871 66.229C16.9871 66.2267 16.9871 66.2245 16.9871 66.2222C16.9871 66.22 16.9871 66.2177 16.9871 66.2155C16.9871 66.2132 16.9871 66.211 16.9871 66.2087C16.9871 66.2065 16.9871 66.2042 16.9871 66.202C16.9871 66.1997 16.9871 66.1975 16.9871 66.1953C16.9871 66.193 16.9871 66.1908 16.9871 66.1885C16.9871 66.1863 16.9871 66.1841 16.9871 66.1818C16.9871 66.1796 16.9871 66.1773 16.9871 66.1751C16.9871 66.1729 16.9871 66.1706 16.9871 66.1684C16.9871 66.1662 16.9871 66.1639 16.9871 66.1617C16.9871 66.1595 16.9871 66.1572 16.9871 66.155C16.9871 66.1528 16.9871 66.1506 16.9871 66.1483C16.9871 66.1461 16.9871 66.1439 16.9871 66.1417C16.9871 66.1394 16.9871 66.1372 16.9871 66.135C16.9871 66.1328 16.9871 66.1306 16.9871 66.1283C16.9871 66.1261 16.9871 66.1239 16.9871 66.1217C16.9871 66.1195 16.9871 66.1172 16.9871 66.115C16.9871 66.1128 16.9871 66.1106 16.9871 66.1084C16.9871 66.1062 16.9871 66.104 16.9871 66.1018C16.9871 66.0995 16.9871 66.0973 16.9871 66.0951C16.9871 66.0929 16.9871 66.0907 16.9871 66.0885C16.9871 66.0863 16.9871 66.0841 16.9871 66.0819C16.9871 66.0797 16.9871 66.0775 16.9871 66.0753C16.9871 66.0731 16.9871 66.0709 16.9871 66.0687C16.9871 66.0665 16.9871 66.0643 16.9871 66.0621C16.9871 66.0599 16.9871 66.0577 16.9871 66.0555C16.9871 66.0533 16.9871 66.0511 16.9871 66.0489C16.9871 66.0467 16.9871 66.0446 16.9871 66.0424C16.9871 66.0402 16.9871 66.038 16.9871 66.0358C16.9871 66.0336 16.9871 66.0314 16.9871 66.0292C16.9871 66.0271 16.9871 66.0249 16.9871 66.0227C16.9871 66.0205 16.9871 66.0183 16.9871 66.0161C16.9871 66.014 16.9871 66.0118 16.9871 66.0096C16.9871 66.0074 16.9871 66.0052 16.9871 66.0031C16.9871 66.0009 16.9871 65.9987 16.9871 65.9966C16.9871 65.9944 16.9871 65.9922 16.9871 65.99C16.9871 65.9879 16.9871 65.9857 16.9871 65.9835C16.9871 65.9814 16.9871 65.9792 16.9871 65.977C16.9871 65.9749 16.9871 65.9727 16.9871 65.9705C16.9871 65.9684 16.9871 65.9662 16.9871 65.964C16.9871 65.9619 16.9871 65.9597 16.9871 65.9576C16.9871 65.9554 16.9871 65.9532 16.9871 65.9511C16.9871 65.9489 16.9871 65.9468 16.9871 65.9446C16.9871 65.9424 16.9871 65.9403 16.9871 65.9381C16.9871 65.936 16.9871 65.9338 16.9871 65.9317C16.9871 65.9295 16.9871 65.9274 16.9871 65.9252C16.9871 65.9231 16.9871 65.9209 16.9871 65.9188C16.9871 65.9166 16.9871 65.9145 16.9871 65.9124C16.9871 65.9102 16.9871 65.9081 16.9871 65.9059C16.9871 65.9038 16.9871 65.9016 16.9871 65.8995C16.9871 65.8974 16.9871 65.8952 16.9871 65.8931C16.9871 65.891 16.9871 65.8888 16.9871 65.8867C16.9871 65.8846 16.9871 65.8824 16.9871 65.8803C16.9871 65.8781 16.9871 65.876 16.9871 65.8739C16.9871 65.8718 16.9871 65.8696 16.9871 65.8675C16.9871 65.8654 16.9871 65.8632 16.9871 65.8611C16.9871 65.859 16.9871 65.8569 16.9871 65.8547C16.9871 65.8526 16.9871 65.8505 16.9871 65.8484C16.9871 65.8463 16.9871 65.8441 16.9871 65.842C16.9871 65.8399 16.9871 65.8378 16.9871 65.8357C16.9871 65.8335 16.9871 65.8314 16.9871 65.8293C16.9871 65.8272 16.9871 65.8251 16.9871 65.823C16.9871 65.8209 16.9871 65.8188 16.9871 65.8166C16.9871 65.8145 16.9871 65.8124 16.9871 65.8103C16.9871 65.8082 16.9871 65.8061 16.9871 65.804C16.9871 65.8019 16.9871 65.7998 16.9871 65.7977C16.9871 65.7956 16.9871 65.7935 16.9871 65.7914C16.9871 65.7893 16.9871 65.7872 16.9871 65.7851C16.9871 65.783 16.9871 65.7809 16.9871 65.7788C16.9871 65.7767 16.9871 65.7746 16.9871 65.7725C16.9871 65.7704 16.9871 65.7683 16.9871 65.7662C16.9871 65.7641 16.9871 65.762 16.9871 65.7599C16.9871 65.7579 16.9871 65.7558 16.9871 65.7537C16.9871 65.7516 16.9871 65.7495 16.9871 65.7474C16.9871 65.7453 16.9871 65.7433 16.9871 65.7412C16.9871 65.7391 16.9871 65.737 16.9871 65.7349C16.9871 65.7328 16.9871 65.7308 16.9871 65.7287C16.9871 65.7266 16.9871 65.7245 16.9871 65.7225C16.9871 65.7204 16.9871 65.7183 16.9871 65.7162C16.9871 65.7142 16.9871 65.7121 16.9871 65.71C16.9871 65.708 16.9871 65.7059 16.9871 65.7038C16.9871 65.7018 16.9871 65.6997 16.9871 65.6976C16.9871 65.6955 16.9871 65.6935 16.9871 65.6914C16.9871 65.6893 16.9871 65.6873 16.9871 65.6852C16.9871 65.6832 16.9871 65.6811 16.9871 65.679C16.9871 65.677 16.9871 65.6749 16.9871 65.6729C16.9871 65.6708 16.9871 65.6688 16.9871 65.6667C16.9871 65.6646 16.9871 65.6626 16.9871 65.6605C16.9871 65.6585 16.9871 65.6564 16.9871 65.6544C16.9871 65.6523 16.9871 65.6503 16.9871 65.6482C16.9871 65.6462 16.9871 65.6441 16.9871 65.6421C16.9871 65.64 16.9871 65.638 16.9871 65.636C16.9871 65.6339 16.9871 65.6319 16.9871 65.6298C16.9871 65.6278 16.9871 65.6257 16.9871 65.6237C16.9871 65.6217 16.9871 65.6196 16.9871 65.6176C16.9871 65.6156 16.9871 65.6135 16.9871 65.6115C16.9871 65.6095 16.9871 65.6074 16.9871 65.6054C16.9871 65.6033 16.9871 65.6013 16.9871 65.5993C16.9871 65.5973 16.9871 65.5952 16.9871 65.5932C16.9871 65.5912 16.9871 65.5891 16.9871 65.5871C16.9871 65.5851 16.9871 65.5831 16.9871 65.581C16.9871 65.579 16.9871 65.577 16.9871 65.575C16.9871 65.573 16.9871 65.5709 16.9871 65.5689C16.9871 65.5669 16.9871 65.5649 16.9871 65.5629C16.9871 65.5609 16.9871 65.5588 16.9871 65.5568C16.9871 65.5548 16.9871 65.5528 16.9871 65.5508C16.9871 65.5488 16.9871 65.5468 16.9871 65.5448C16.9871 65.5427 16.9871 65.5407 16.9871 65.5387C16.9871 65.5367 16.9871 65.5347 16.9871 65.5327C16.9871 65.5307 16.9871 65.5287 16.9871 65.5267C16.9871 65.5247 16.9871 65.5227 16.9871 65.5207C16.9871 65.5187 16.9871 65.5167 16.9871 65.5147C16.9871 65.5127 16.9871 65.5107 16.9871 65.5087C16.9871 65.5067 16.9871 65.5047 16.9871 65.5027C16.9871 65.5007 16.9871 65.4987 16.9871 65.4967C16.9871 65.4947 16.9871 65.4928 16.9871 65.4908C16.9871 65.4888 16.9871 65.4868 16.9871 65.4848C16.9871 65.4828 16.9871 65.4808 16.9871 65.4788C16.9871 65.4769 16.9871 65.4749 16.9871 65.4729C16.9871 65.4709 16.9871 65.4689 16.9871 65.4669C16.9871 65.465 16.9871 65.463 16.9871 65.461C16.9871 65.459 16.9871 65.4571 16.9871 65.4551C16.9871 65.4531 16.9871 65.4511 16.9871 65.4492C16.9871 65.4472 16.9871 65.4452 16.9871 65.4432C16.9871 65.4413 16.9871 65.4393 16.9871 65.4373C16.9871 65.4354 16.9871 65.4334 16.9871 65.4314C16.9871 65.4295 16.9871 65.4275 16.9871 65.4255C16.9871 65.4236 16.9871 65.4216 16.9871 65.4196C16.9871 65.4177 16.9871 65.4157 16.9871 65.4138C16.9871 65.4118 16.9871 65.4098 16.9871 65.4079C16.9871 65.4059 16.9871 65.404 16.9871 65.402C16.9871 65.4001 16.9871 65.3981 16.9871 65.3962C16.9871 65.3942 16.9871 65.3923 16.9871 65.3903C16.9871 65.3884 16.9871 65.3864 16.9871 65.3845C16.9871 65.3825 16.9871 65.3806 16.9871 65.3786C16.9871 65.3767 16.9871 65.3747 16.9871 65.3728C16.9871 65.3708 16.9871 65.3689 16.9871 65.367C16.9871 65.365 16.9871 65.3631 16.9871 65.3611C16.9871 65.3592 16.9871 65.3573 16.9871 65.3553C16.9871 65.3534 16.9871 65.3514 16.9871 65.3495C16.9871 65.3476 16.9871 65.3456 16.9871 65.3437C16.9871 65.3418 16.9871 65.3398 16.9871 65.3379C16.9871 65.336 16.9871 65.3341 16.9871 65.3321C16.9871 65.3302 16.9871 65.3283 16.9871 65.3264C16.9871 65.3244 16.9871 65.3225 16.9871 65.3206C16.9871 65.3186 16.9871 65.3167 16.9871 65.3148C16.9871 65.3129 16.9871 65.311 16.9871 65.3091C16.9871 65.3071 16.9871 65.3052 16.9871 65.3033C16.9871 65.3014 16.9871 65.2995 16.9871 65.2976C16.9871 65.2956 16.9871 65.2937 16.9871 65.2918C16.9871 65.2899 16.9871 65.288 16.9871 65.2861C16.9871 65.2842 16.9871 65.2823 16.9871 65.2804C16.9871 65.2785 16.9871 65.2765 16.9871 65.2746C16.9871 65.2727 16.9871 65.2708 16.9871 65.2689C16.9871 65.267 16.9871 65.2651 16.9871 65.2632C16.9871 65.2613 16.9871 65.2594 16.9871 65.2575C16.9871 65.2556 16.9871 65.2537 16.9871 65.2518C16.9871 65.2499 16.9871 65.248 16.9871 65.2462C16.9871 65.2443 16.9871 65.2424 16.9871 65.2405C16.9871 65.2386 16.9871 65.2367 16.9871 65.2348C16.9871 65.2329 16.9871 65.231 16.9871 65.2291C16.9871 65.2272 16.9871 65.2254 16.9871 65.2235C16.9871 65.2216 16.9871 65.2197 16.9871 65.2178C16.9871 65.216 16.9871 65.2141 16.9871 65.2122C16.9871 65.2103 16.9871 65.2084 16.9871 65.2066C16.9871 65.2047 16.9871 65.2028 16.9871 65.2009C16.9871 65.1991 16.9871 65.1972 16.9871 65.1953C16.9871 65.1934 16.9871 65.1916 16.9871 65.1897C16.9871 65.1878 16.9871 65.1859 16.9871 65.1841C16.9871 65.1822 16.9871 65.1803 16.9871 65.1785C16.9871 65.1766 16.9871 65.1747 16.9871 65.1729C16.9871 65.171 16.9871 65.1692 16.9871 65.1673C16.9871 65.1654 16.9871 65.1636 16.9871 65.1617C16.9871 65.1599 16.9871 65.158 16.9871 65.1561C16.9871 65.1543 16.9871 65.1524 16.9871 65.1506C16.9871 65.1487 16.9871 65.1469 16.9871 65.145C16.9871 65.1432 16.9871 65.1413 16.9871 65.1395C16.9871 65.1376 16.9871 65.1357 16.9871 65.1339C16.9871 65.132 16.9871 65.1302 16.9871 65.1284C16.9871 65.1265 16.9871 65.1247 16.9871 65.1228C16.9871 65.121 16.9871 65.1191 16.9871 65.1173C16.9871 65.1155 16.9871 65.1136 16.9871 65.1118C16.9871 65.1099 16.9871 65.1081 16.9871 65.1063C16.9871 65.1044 16.9871 65.1026 16.9871 65.1008C16.9871 65.0989 16.9871 65.0971 16.9871 65.0953H9.00499H1.02283C1.02283 65.0971 1.02283 65.0989 1.02283 65.1008C1.02283 65.1026 1.02283 65.1044 1.02283 65.1063C1.02283 65.1081 1.02283 65.1099 1.02283 65.1118C1.02283 65.1136 1.02283 65.1155 1.02283 65.1173C1.02283 65.1191 1.02283 65.121 1.02283 65.1228C1.02283 65.1247 1.02283 65.1265 1.02283 65.1284C1.02283 65.1302 1.02283 65.132 1.02283 65.1339C1.02283 65.1357 1.02283 65.1376 1.02283 65.1395C1.02283 65.1413 1.02283 65.1432 1.02283 65.145C1.02283 65.1469 1.02283 65.1487 1.02283 65.1506C1.02283 65.1524 1.02283 65.1543 1.02283 65.1561C1.02283 65.158 1.02283 65.1599 1.02283 65.1617C1.02283 65.1636 1.02283 65.1654 1.02283 65.1673C1.02283 65.1692 1.02283 65.171 1.02283 65.1729C1.02283 65.1747 1.02283 65.1766 1.02283 65.1785C1.02283 65.1803 1.02283 65.1822 1.02283 65.1841C1.02283 65.1859 1.02283 65.1878 1.02283 65.1897C1.02283 65.1916 1.02283 65.1934 1.02283 65.1953C1.02283 65.1972 1.02283 65.1991 1.02283 65.2009C1.02283 65.2028 1.02283 65.2047 1.02283 65.2066C1.02283 65.2084 1.02283 65.2103 1.02283 65.2122C1.02283 65.2141 1.02283 65.216 1.02283 65.2178C1.02283 65.2197 1.02283 65.2216 1.02283 65.2235C1.02283 65.2254 1.02283 65.2272 1.02283 65.2291C1.02283 65.231 1.02283 65.2329 1.02283 65.2348C1.02283 65.2367 1.02283 65.2386 1.02283 65.2405C1.02283 65.2424 1.02283 65.2443 1.02283 65.2462C1.02283 65.248 1.02283 65.2499 1.02283 65.2518C1.02283 65.2537 1.02283 65.2556 1.02283 65.2575C1.02283 65.2594 1.02283 65.2613 1.02283 65.2632C1.02283 65.2651 1.02283 65.267 1.02283 65.2689C1.02283 65.2708 1.02283 65.2727 1.02283 65.2746C1.02283 65.2765 1.02283 65.2785 1.02283 65.2804C1.02283 65.2823 1.02283 65.2842 1.02283 65.2861C1.02283 65.288 1.02283 65.2899 1.02283 65.2918C1.02283 65.2937 1.02283 65.2956 1.02283 65.2976C1.02283 65.2995 1.02283 65.3014 1.02283 65.3033C1.02283 65.3052 1.02283 65.3071 1.02283 65.3091C1.02283 65.311 1.02283 65.3129 1.02283 65.3148C1.02283 65.3167 1.02283 65.3186 1.02283 65.3206C1.02283 65.3225 1.02283 65.3244 1.02283 65.3264C1.02283 65.3283 1.02283 65.3302 1.02283 65.3321C1.02283 65.3341 1.02283 65.336 1.02283 65.3379C1.02283 65.3398 1.02283 65.3418 1.02283 65.3437C1.02283 65.3456 1.02283 65.3476 1.02283 65.3495C1.02283 65.3514 1.02283 65.3534 1.02283 65.3553C1.02283 65.3573 1.02283 65.3592 1.02283 65.3611C1.02283 65.3631 1.02283 65.365 1.02283 65.367C1.02283 65.3689 1.02283 65.3708 1.02283 65.3728C1.02283 65.3747 1.02283 65.3767 1.02283 65.3786C1.02283 65.3806 1.02283 65.3825 1.02283 65.3845C1.02283 65.3864 1.02283 65.3884 1.02283 65.3903C1.02283 65.3923 1.02283 65.3942 1.02283 65.3962C1.02283 65.3981 1.02283 65.4001 1.02283 65.402C1.02283 65.404 1.02283 65.4059 1.02283 65.4079C1.02283 65.4098 1.02283 65.4118 1.02283 65.4138C1.02283 65.4157 1.02283 65.4177 1.02283 65.4196C1.02283 65.4216 1.02283 65.4236 1.02283 65.4255C1.02283 65.4275 1.02283 65.4295 1.02283 65.4314C1.02283 65.4334 1.02283 65.4354 1.02283 65.4373C1.02283 65.4393 1.02283 65.4413 1.02283 65.4432C1.02283 65.4452 1.02283 65.4472 1.02283 65.4492C1.02283 65.4511 1.02283 65.4531 1.02283 65.4551C1.02283 65.4571 1.02283 65.459 1.02283 65.461C1.02283 65.463 1.02283 65.465 1.02283 65.4669C1.02283 65.4689 1.02283 65.4709 1.02283 65.4729C1.02283 65.4749 1.02283 65.4769 1.02283 65.4788C1.02283 65.4808 1.02283 65.4828 1.02283 65.4848C1.02283 65.4868 1.02283 65.4888 1.02283 65.4908C1.02283 65.4928 1.02283 65.4947 1.02283 65.4967C1.02283 65.4987 1.02283 65.5007 1.02283 65.5027C1.02283 65.5047 1.02283 65.5067 1.02283 65.5087C1.02283 65.5107 1.02283 65.5127 1.02283 65.5147C1.02283 65.5167 1.02283 65.5187 1.02283 65.5207C1.02283 65.5227 1.02283 65.5247 1.02283 65.5267C1.02283 65.5287 1.02283 65.5307 1.02283 65.5327C1.02283 65.5347 1.02283 65.5367 1.02283 65.5387C1.02283 65.5407 1.02283 65.5427 1.02283 65.5448C1.02283 65.5468 1.02283 65.5488 1.02283 65.5508C1.02283 65.5528 1.02283 65.5548 1.02283 65.5568C1.02283 65.5588 1.02283 65.5609 1.02283 65.5629C1.02283 65.5649 1.02283 65.5669 1.02283 65.5689C1.02283 65.5709 1.02283 65.573 1.02283 65.575C1.02283 65.577 1.02283 65.579 1.02283 65.581C1.02283 65.5831 1.02283 65.5851 1.02283 65.5871C1.02283 65.5891 1.02283 65.5912 1.02283 65.5932C1.02283 65.5952 1.02283 65.5973 1.02283 65.5993C1.02283 65.6013 1.02283 65.6033 1.02283 65.6054C1.02283 65.6074 1.02283 65.6095 1.02283 65.6115C1.02283 65.6135 1.02283 65.6156 1.02283 65.6176C1.02283 65.6196 1.02283 65.6217 1.02283 65.6237C1.02283 65.6257 1.02283 65.6278 1.02283 65.6298C1.02283 65.6319 1.02283 65.6339 1.02283 65.636C1.02283 65.638 1.02283 65.64 1.02283 65.6421C1.02283 65.6441 1.02283 65.6462 1.02283 65.6482C1.02283 65.6503 1.02283 65.6523 1.02283 65.6544C1.02283 65.6564 1.02283 65.6585 1.02283 65.6605C1.02283 65.6626 1.02283 65.6646 1.02283 65.6667C1.02283 65.6688 1.02283 65.6708 1.02283 65.6729C1.02283 65.6749 1.02283 65.677 1.02283 65.679C1.02283 65.6811 1.02283 65.6832 1.02283 65.6852C1.02283 65.6873 1.02283 65.6893 1.02283 65.6914C1.02283 65.6935 1.02283 65.6955 1.02283 65.6976C1.02283 65.6997 1.02283 65.7018 1.02283 65.7038C1.02283 65.7059 1.02283 65.708 1.02283 65.71C1.02283 65.7121 1.02283 65.7142 1.02283 65.7162C1.02283 65.7183 1.02283 65.7204 1.02283 65.7225C1.02283 65.7245 1.02283 65.7266 1.02283 65.7287C1.02283 65.7308 1.02283 65.7328 1.02283 65.7349C1.02283 65.737 1.02283 65.7391 1.02283 65.7412C1.02283 65.7433 1.02283 65.7453 1.02283 65.7474C1.02283 65.7495 1.02283 65.7516 1.02283 65.7537C1.02283 65.7558 1.02283 65.7579 1.02283 65.7599C1.02283 65.762 1.02283 65.7641 1.02283 65.7662C1.02283 65.7683 1.02283 65.7704 1.02283 65.7725C1.02283 65.7746 1.02283 65.7767 1.02283 65.7788C1.02283 65.7809 1.02283 65.783 1.02283 65.7851C1.02283 65.7872 1.02283 65.7893 1.02283 65.7914C1.02283 65.7935 1.02283 65.7956 1.02283 65.7977C1.02283 65.7998 1.02283 65.8019 1.02283 65.804C1.02283 65.8061 1.02283 65.8082 1.02283 65.8103C1.02283 65.8124 1.02283 65.8145 1.02283 65.8166C1.02283 65.8188 1.02283 65.8209 1.02283 65.823C1.02283 65.8251 1.02283 65.8272 1.02283 65.8293C1.02283 65.8314 1.02283 65.8335 1.02283 65.8357C1.02283 65.8378 1.02283 65.8399 1.02283 65.842C1.02283 65.8441 1.02283 65.8463 1.02283 65.8484C1.02283 65.8505 1.02283 65.8526 1.02283 65.8547C1.02283 65.8569 1.02283 65.859 1.02283 65.8611C1.02283 65.8632 1.02283 65.8654 1.02283 65.8675C1.02283 65.8696 1.02283 65.8718 1.02283 65.8739C1.02283 65.876 1.02283 65.8781 1.02283 65.8803C1.02283 65.8824 1.02283 65.8846 1.02283 65.8867C1.02283 65.8888 1.02283 65.891 1.02283 65.8931C1.02283 65.8952 1.02283 65.8974 1.02283 65.8995C1.02283 65.9016 1.02283 65.9038 1.02283 65.9059C1.02283 65.9081 1.02283 65.9102 1.02283 65.9124C1.02283 65.9145 1.02283 65.9166 1.02283 65.9188C1.02283 65.9209 1.02283 65.9231 1.02283 65.9252C1.02283 65.9274 1.02283 65.9295 1.02283 65.9317C1.02283 65.9338 1.02283 65.936 1.02283 65.9381C1.02283 65.9403 1.02283 65.9424 1.02283 65.9446C1.02283 65.9468 1.02283 65.9489 1.02283 65.9511C1.02283 65.9532 1.02283 65.9554 1.02283 65.9576C1.02283 65.9597 1.02283 65.9619 1.02283 65.964C1.02283 65.9662 1.02283 65.9684 1.02283 65.9705C1.02283 65.9727 1.02283 65.9749 1.02283 65.977C1.02283 65.9792 1.02283 65.9814 1.02283 65.9835C1.02283 65.9857 1.02283 65.9879 1.02283 65.99C1.02283 65.9922 1.02283 65.9944 1.02283 65.9966C1.02283 65.9987 1.02283 66.0009 1.02283 66.0031C1.02283 66.0052 1.02283 66.0074 1.02283 66.0096C1.02283 66.0118 1.02283 66.014 1.02283 66.0161C1.02283 66.0183 1.02283 66.0205 1.02283 66.0227C1.02283 66.0249 1.02283 66.0271 1.02283 66.0292C1.02283 66.0314 1.02283 66.0336 1.02283 66.0358C1.02283 66.038 1.02283 66.0402 1.02283 66.0424C1.02283 66.0446 1.02283 66.0467 1.02283 66.0489C1.02283 66.0511 1.02283 66.0533 1.02283 66.0555C1.02283 66.0577 1.02283 66.0599 1.02283 66.0621C1.02283 66.0643 1.02283 66.0665 1.02283 66.0687C1.02283 66.0709 1.02283 66.0731 1.02283 66.0753C1.02283 66.0775 1.02283 66.0797 1.02283 66.0819C1.02283 66.0841 1.02283 66.0863 1.02283 66.0885C1.02283 66.0907 1.02283 66.0929 1.02283 66.0951C1.02283 66.0973 1.02283 66.0995 1.02283 66.1018C1.02283 66.104 1.02283 66.1062 1.02283 66.1084C1.02283 66.1106 1.02283 66.1128 1.02283 66.115C1.02283 66.1172 1.02283 66.1195 1.02283 66.1217C1.02283 66.1239 1.02283 66.1261 1.02283 66.1283C1.02283 66.1306 1.02283 66.1328 1.02283 66.135C1.02283 66.1372 1.02283 66.1394 1.02283 66.1417C1.02283 66.1439 1.02283 66.1461 1.02283 66.1483C1.02283 66.1506 1.02283 66.1528 1.02283 66.155C1.02283 66.1572 1.02283 66.1595 1.02283 66.1617C1.02283 66.1639 1.02283 66.1662 1.02283 66.1684C1.02283 66.1706 1.02283 66.1729 1.02283 66.1751C1.02283 66.1773 1.02283 66.1796 1.02283 66.1818C1.02283 66.1841 1.02283 66.1863 1.02283 66.1885C1.02283 66.1908 1.02283 66.193 1.02283 66.1953C1.02283 66.1975 1.02283 66.1997 1.02283 66.202C1.02283 66.2042 1.02283 66.2065 1.02283 66.2087C1.02283 66.211 1.02283 66.2132 1.02283 66.2155C1.02283 66.2177 1.02283 66.22 1.02283 66.2222C1.02283 66.2245 1.02283 66.2267 1.02283 66.229C1.02283 66.2312 1.02283 66.2335 1.02283 66.2357C1.02283 66.238 1.02283 66.2402 1.02283 66.2425C1.02283 66.2448 1.02283 66.247 1.02283 66.2493C1.02283 66.2515 1.02283 66.2538 1.02283 66.2561C1.02283 66.2583 1.02283 66.2606 1.02283 66.2629C1.02283 66.2651 1.02283 66.2674 1.02283 66.2697C1.02283 66.2719 1.02283 66.2742 1.02283 66.2765C1.02283 66.2787 1.02283 66.281 1.02283 66.2833C1.02283 66.2855 1.02283 66.2878 1.02283 66.2901C1.02283 66.2924 1.02283 66.2946 1.02283 66.2969C1.02283 66.2992 1.02283 66.3015 1.02283 66.3037C1.02283 66.306 1.02283 66.3083 1.02283 66.3106C1.02283 66.3129 1.02283 66.3151 1.02283 66.3174C1.02283 66.3197 1.02283 66.322 1.02283 66.3243C1.02283 66.3266 1.02283 66.3288 1.02283 66.3311C1.02283 66.3334 1.02283 66.3357 1.02283 66.338C1.02283 66.3403 1.02283 66.3426 1.02283 66.3449C1.02283 66.3472 1.02283 66.3495 1.02283 66.3518C1.02283 66.354 1.02283 66.3563 1.02283 66.3586C1.02283 66.3609 1.02283 66.3632 1.02283 66.3655C1.02283 66.3678 1.02283 66.3701 1.02283 66.3724C1.02283 66.3747 1.02283 66.377 1.02283 66.3793C1.02283 66.3817 1.02283 66.384 1.02283 66.3863C1.02283 66.3886 1.02283 66.3909 1.02283 66.3932C1.02283 66.3955 1.02283 66.3978 1.02283 66.4001C1.02283 66.4024 1.02283 66.4047 1.02283 66.407C1.02283 66.4093 1.02283 66.4117 1.02283 66.414C1.02283 66.4163 1.02283 66.4186 1.02283 66.4209C1.02283 66.4232 1.02283 66.4256 1.02283 66.4279C1.02283 66.4302 1.02283 66.4325 1.02283 66.4348C1.02283 66.4372 1.02283 66.4395 1.02283 66.4418C1.02283 66.4441 1.02283 66.4465 1.02283 66.4488C1.02283 66.4511 1.02283 66.4534 1.02283 66.4558C1.02283 66.4581 1.02283 66.4604 1.02283 66.4628C1.02283 66.4651 1.02283 66.4674 1.02283 66.4698C1.02283 66.4721 1.02283 66.4744 1.02283 66.4768C1.02283 66.4791 1.02283 66.4814 1.02283 66.4838C1.02283 66.4861 1.02283 66.4884 1.02283 66.4908C1.02283 66.4931 1.02283 66.4955 1.02283 66.4978C1.02283 66.5002 1.02283 66.5025 1.02283 66.5048C1.02283 66.5072 1.02283 66.5095 1.02283 66.5119C1.02283 66.5142 1.02283 66.5166 1.02283 66.5189C1.02283 66.5213 1.02283 66.5236 1.02283 66.526C1.02283 66.5283 1.02283 66.5307 1.02283 66.533C1.02283 66.5354 1.02283 66.5377 1.02283 66.5401C1.02283 66.5424 1.02283 66.5448 1.02283 66.5472C1.02283 66.5495 1.02283 66.5519 1.02283 66.5542C1.02283 66.5566 1.02283 66.559 1.02283 66.5613C1.02283 66.5637 1.02283 66.566 1.02283 66.5684C1.02283 66.5708 1.02283 66.5731 1.02283 66.5755C1.02283 66.5779 1.02283 66.5802 1.02283 66.5826C1.02283 66.585 1.02283 66.5874 1.02283 66.5897C1.02283 66.5921 1.02283 66.5945 1.02283 66.5968C1.02283 66.5992 1.02283 66.6016 1.02283 66.604C1.02283 66.6064 1.02283 66.6087 1.02283 66.6111C1.02283 66.6135 1.02283 66.6159 1.02283 66.6182C1.02283 66.6206 1.02283 66.623 1.02283 66.6254C1.02283 66.6278 1.02283 66.6302 1.02283 66.6325C1.02283 66.6349 1.02283 66.6373 1.02283 66.6397C1.02283 66.6421 1.02283 66.6445 1.02283 66.6469C1.02283 66.6493 1.02283 66.6516 1.02283 66.654C1.02283 66.6564 1.02283 66.6588 1.02283 66.6612C1.02283 66.6636 1.02283 66.666 1.02283 66.6684C1.02283 66.6708 1.02283 66.6732 1.02283 66.6756C1.02283 66.678 1.02283 66.6804 1.02283 66.6828C1.02283 66.6852 1.02283 66.6876 1.02283 66.69C1.02283 66.6924 1.02283 66.6948 1.02283 66.6972C1.02283 66.6996 1.02283 66.702 1.02283 66.7044C1.02283 66.7069 1.02283 66.7093 1.02283 66.7117C1.02283 66.7141 1.02283 66.7165 1.02283 66.7189C1.02283 66.7213 1.02283 66.7237 1.02283 66.7262C1.02283 66.7286 1.02283 66.731 1.02283 66.7334C1.02283 66.7358 1.02283 66.7382 1.02283 66.7407C1.02283 66.7431 1.02283 66.7455 1.02283 66.7479C1.02283 66.7503 1.02283 66.7528 1.02283 66.7552C1.02283 66.7576 1.02283 66.76 1.02283 66.7625C1.02283 66.7649 1.02283 66.7673 1.02283 66.7697C1.02283 66.7722 1.02283 66.7746 1.02283 66.777C1.02283 66.7795 1.02283 66.7819 1.02283 66.7843C1.02283 66.7868 1.02283 66.7892 1.02283 66.7916C1.02283 66.7941 1.02283 66.7965 1.02283 66.7989C1.02283 66.8014 1.02283 66.8038 1.02283 66.8063C1.02283 66.8087 1.02283 66.8111 1.02283 66.8136C1.02283 66.816 1.02283 66.8185 1.02283 66.8209C1.02283 66.8234 1.02283 66.8258 1.02283 66.8282C1.02283 66.8307 1.02283 66.8331 1.02283 66.8356C1.02283 66.838 1.02283 66.8405 1.02283 66.8429C1.02283 66.8454 1.02283 66.8479 1.02283 66.8503C1.02283 66.8528 1.02283 66.8552 1.02283 66.8577C1.02283 66.8601 1.02283 66.8626 1.02283 66.865C1.02283 66.8675 1.02283 66.87 1.02283 66.8724C1.02283 66.8749 1.02283 66.8773 1.02283 66.8798C1.02283 66.8823 1.02283 66.8847 1.02283 66.8872C1.02283 66.8897 1.02283 66.8921 1.02283 66.8946C1.02283 66.8971 1.02283 66.8995 1.02283 66.902C1.02283 66.9045 1.02283 66.9069 1.02283 66.9094C1.02283 66.9119 1.02283 66.9144 1.02283 66.9168C1.02283 66.9193 1.02283 66.9218 1.02283 66.9243C1.02283 66.9267 1.02283 66.9292 1.02283 66.9317C1.02283 66.9342 1.02283 66.9366 1.02283 66.9391C1.02283 66.9416 1.02283 66.9441 1.02283 66.9466C1.02283 66.9491 1.02283 66.9515 1.02283 66.954C1.02283 66.9565 1.02283 66.959 1.02283 66.9615C1.02283 66.964 1.02283 66.9665 1.02283 66.969C1.02283 66.9715 1.02283 66.9739 1.02283 66.9764C1.02283 66.9789 1.02283 66.9814 1.02283 66.9839C1.02283 66.9864 1.02283 66.9889 1.02283 66.9914C1.02283 66.9939 1.02283 66.9964 1.02283 66.9989C1.02283 67.0014 1.02283 67.0039 1.02283 67.0064C1.02283 67.0089 1.02283 67.0114 1.02283 67.0139C1.02283 67.0164 1.02283 67.0189 1.02283 67.0214C1.02283 67.0239 1.02283 67.0264 1.02283 67.0289C1.02283 67.0314 1.02283 67.034 1.02283 67.0365C1.02283 67.039 1.02283 67.0415 1.02283 67.044C1.02283 67.0465 1.02283 67.049 1.02283 67.0515C1.02283 67.0541 1.02283 67.0566 1.02283 67.0591C1.02283 67.0616 1.02283 67.0641 1.02283 67.0667C1.02283 67.0692 1.02283 67.0717 1.02283 67.0742C1.02283 67.0767 1.02283 67.0793 1.02283 67.0818C1.02283 67.0843 1.02283 67.0868 1.02283 67.0894C1.02283 67.0919 1.02283 67.0944 1.02283 67.0969C1.02283 67.0995 1.02283 67.102 1.02283 67.1045C1.02283 67.1071 1.02283 67.1096 1.02283 67.1121C1.02283 67.1147 1.02283 67.1172 1.02283 67.1197C1.02283 67.1223 1.02283 67.1248 1.02283 67.1273C1.02283 67.1299 1.02283 67.1324 1.02283 67.135C1.02283 67.1375 1.02283 67.14 1.02283 67.1426C1.02283 67.1451 1.02283 67.1477 1.02283 67.1502C1.02283 67.1528 1.02283 67.1553 1.02283 67.1579C1.02283 67.1604 1.02283 67.1629 1.02283 67.1655C1.02283 67.168 1.02283 67.1706 1.02283 67.1732C1.02283 67.1757 1.02283 67.1783 1.02283 67.1808C1.02283 67.1834 1.02283 67.1859 1.02283 67.1885C1.02283 67.191 1.02283 67.1936 1.02283 67.1962C1.02283 67.1987 1.02283 67.2013 1.02283 67.2038C1.02283 67.2064 1.02283 67.209 1.02283 67.2115C1.02283 67.2141 1.02283 67.2166 1.02283 67.2192C1.02283 67.2218 1.02283 67.2243 1.02283 67.2269C1.02283 67.2295 1.02283 67.232 1.02283 67.2346C1.02283 67.2372 1.02283 67.2397 1.02283 67.2423C1.02283 67.2449 1.02283 67.2475 1.02283 67.25C1.02283 67.2526 1.02283 67.2552 1.02283 67.2578C1.02283 67.2603 1.02283 67.2629 1.02283 67.2655C1.02283 67.2681 1.02283 67.2707 1.02283 67.2732C1.02283 67.2758 1.02283 67.2784 1.02283 67.281C1.02283 67.2836 1.02283 67.2862 1.02283 67.2887C1.02283 67.2913 1.02283 67.2939 1.02283 67.2965C1.02283 67.2991 1.02283 67.3017 1.02283 67.3043C1.02283 67.3069 1.02283 67.3095 1.02283 67.312C1.02283 67.3146 1.02283 67.3172 1.02283 67.3198C1.02283 67.3224 1.02283 67.325 1.02283 67.3276C1.02283 67.3302 1.02283 67.3328 1.02283 67.3354C1.02283 67.338 1.02283 67.3406 1.02283 67.3432C1.02283 67.3458 1.02283 67.3484 1.02283 67.351C1.02283 67.3536 1.02283 67.3562 1.02283 67.3588C1.02283 67.3614 1.02283 67.3641 1.02283 67.3667C1.02283 67.3693 1.02283 67.3719 1.02283 67.3745C1.02283 67.3771 1.02283 67.3797 1.02283 67.3823C1.02283 67.3849 1.02283 67.3876 1.02283 67.3902C1.02283 67.3928 1.02283 67.3954 1.02283 67.398C1.02283 67.4006 1.02283 67.4033 1.02283 67.4059C1.02283 67.4085 1.02283 67.4111 1.02283 67.4137C1.02283 67.4164 1.02283 67.419 1.02283 67.4216C1.02283 67.4242 1.02283 67.4269 1.02283 67.4295C1.02283 67.4321 1.02283 67.4347 1.02283 67.4374C1.02283 67.44 1.02283 67.4426 1.02283 67.4453C1.02283 67.4479 1.02283 67.4505 1.02283 67.4532C1.02283 67.4558 1.02283 67.4584 1.02283 67.4611C1.02283 67.4637 1.02283 67.4663 1.02283 67.469C1.02283 67.4716 1.02283 67.4743 1.02283 67.4769C1.02283 67.4795 1.02283 67.4822 1.02283 67.4848C1.02283 67.4875 1.02283 67.4901 1.02283 67.4927C1.02283 67.4954 1.02283 67.498 1.02283 67.5007C1.02283 67.5033 1.02283 67.506 1.02283 67.5086C1.02283 67.5113 1.02283 67.5139 1.02283 67.5166C1.02283 67.5192 1.02283 67.5219 1.02283 67.5245C1.02283 67.5272 1.02283 67.5298 1.02283 67.5325C1.02283 67.5352 1.02283 67.5378 1.02283 67.5405C1.02283 67.5431 1.02283 67.5458 1.02283 67.5485C1.02283 67.5511 1.02283 67.5538 1.02283 67.5564C1.02283 67.5591 1.02283 67.5618 1.02283 67.5644C1.02283 67.5671 1.02283 67.5698 1.02283 67.5724C1.02283 67.5751 1.02283 67.5778 1.02283 67.5804C1.02283 67.5831 1.02283 67.5858 1.02283 67.5885C1.02283 67.5911 1.02283 67.5938 1.02283 67.5965C1.02283 67.5992 1.02283 67.6018 1.02283 67.6045C1.02283 67.6072 1.02283 67.6099 1.02283 67.6125C1.02283 67.6152 1.02283 67.6179 1.02283 67.6206C1.02283 67.6233 1.02283 67.6259 1.02283 67.6286C1.02283 67.6313 1.02283 67.634 1.02283 67.6367C1.02283 67.6394 1.02283 67.6421 1.02283 67.6447C1.02283 67.6474 1.02283 67.6501 1.02283 67.6528C1.02283 67.6555 1.02283 67.6582 1.02283 67.6609C1.02283 67.6636 1.02283 67.6663 1.02283 67.669C1.02283 67.6717 1.02283 67.6744 1.02283 67.6771C1.02283 67.6798 1.02283 67.6824 1.02283 67.6852C1.02283 67.6879 1.02283 67.6906 1.02283 67.6933C1.02283 67.696 1.02283 67.6987 1.02283 67.7014C1.02283 67.7041 1.02283 67.7068 1.02283 67.7095C1.02283 67.7122 1.02283 67.7149 1.02283 67.7176C1.02283 67.7203 1.02283 67.723 1.02283 67.7257C1.02283 67.7284 1.02283 67.7312 1.02283 67.7339C1.02283 67.7366 1.02283 67.7393 1.02283 67.742C1.02283 67.7447 1.02283 67.7475 1.02283 67.7502C1.02283 67.7529 1.02283 67.7556 1.02283 67.7583C1.02283 67.761 1.02283 67.7638 1.02283 67.7665C1.02283 67.7692 1.02283 67.7719 1.02283 67.7747C1.02283 67.7774 1.02283 67.7801 1.02283 67.7828C1.02283 67.7856 1.02283 67.7883 1.02283 67.791C1.02283 67.7937 1.02283 67.7965 1.02283 67.7992C1.02283 67.8019 1.02283 67.8047 1.02283 67.8074C1.02283 67.8101 1.02283 67.8129 1.02283 67.8156C1.02283 67.8183 1.02283 67.8211 1.02283 67.8238C1.02283 67.8266 1.02283 67.8293 1.02283 67.832C1.02283 67.8348 1.02283 67.8375 1.02283 67.8403C1.02283 67.843 1.02283 67.8458 1.02283 67.8485C1.02283 67.8512 1.02283 67.854 1.02283 67.8567C1.02283 67.8595 1.02283 67.8622 1.02283 67.865C1.02283 67.8677 1.02283 67.8705 1.02283 67.8732C1.02283 67.876 1.02283 67.8787 1.02283 67.8815C1.02283 67.8842 1.02283 67.887 1.02283 67.8898C1.02283 67.8925 1.02283 67.8953 1.02283 67.898C1.02283 67.9008 1.02283 67.9036 1.02283 67.9063C1.02283 67.9091 1.02283 67.9118 1.02283 67.9146C1.02283 67.9174 1.02283 67.9201 1.02283 67.9229C1.02283 67.9257 1.02283 67.9284 1.02283 67.9312C1.02283 67.934 1.02283 67.9367 1.02283 67.9395C1.02283 67.9423 1.02283 67.945 1.02283 67.9478C1.02283 67.9506 1.02283 67.9534 1.02283 67.9561C1.02283 67.9589 1.02283 67.9617 1.02283 67.9645C1.02283 67.9672 1.02283 67.97 1.02283 67.9728C1.02283 67.9756 1.02283 67.9784 1.02283 67.9811C1.02283 67.9839 1.02283 67.9867 1.02283 67.9895C1.02283 67.9923 1.02283 67.9951 1.02283 67.9978C1.02283 68.0006 1.02283 68.0034 1.02283 68.0062C1.02283 68.009 1.02283 68.0118 1.02283 68.0146C1.02283 68.0174 1.02283 68.0202 1.02283 68.0229C1.02283 68.0257 1.02283 68.0285 1.02283 68.0313C1.02283 68.0341 1.02283 68.0369 1.02283 68.0397C1.02283 68.0425 1.02283 68.0453 1.02283 68.0481C1.02283 68.0509 1.02283 68.0537 1.02283 68.0565C1.02283 68.0593 1.02283 68.0621 1.02283 68.0649C1.02283 68.0677 1.02283 68.0705 1.02283 68.0733C1.02283 68.0762 1.02283 68.079 1.02283 68.0818C1.02283 68.0846 1.02283 68.0874 1.02283 68.0902C1.02283 68.093 1.02283 68.0958 1.02283 68.0986C1.02283 68.1015 1.02283 68.1043 1.02283 68.1071C1.02283 68.1099 1.02283 68.1127 1.02283 68.1155C1.02283 68.1184 1.02283 68.1212 1.02283 68.124C1.02283 68.1268 1.02283 68.1296 1.02283 68.1325C1.02283 68.1353 1.02283 68.1381 1.02283 68.1409C1.02283 68.1438 1.02283 68.1466 1.02283 68.1494C1.02283 68.1522 1.02283 68.1551 1.02283 68.1579C1.02283 68.1607 1.02283 68.1636 1.02283 68.1664C1.02283 68.1692 1.02283 68.1721 1.02283 68.1749C1.02283 68.1777 1.02283 68.1806 1.02283 68.1834C1.02283 68.1862 1.02283 68.1891 1.02283 68.1919C1.02283 68.1947 1.02283 68.1976 1.02283 68.2004C1.02283 68.2033 1.02283 68.2061 1.02283 68.2089C1.02283 68.2118 1.02283 68.2146 1.02283 68.2175C1.02283 68.2203 1.02283 68.2232 1.02283 68.226C1.02283 68.2289 1.02283 68.2317 1.02283 68.2346C1.02283 68.2374 1.02283 68.2403 1.02283 68.2431C1.02283 68.246 1.02283 68.2488 1.02283 68.2517C1.02283 68.2545 1.02283 68.2574 1.02283 68.2602C1.02283 68.2631 1.02283 68.266 1.02283 68.2688C1.02283 68.2717 1.02283 68.2745 1.02283 68.2774C1.02283 68.2803 1.02283 68.2831 1.02283 68.286C1.02283 68.2888 1.02283 68.2917 1.02283 68.2946C1.02283 68.2974 1.02283 68.3003 1.02283 68.3032C1.02283 68.306 1.02283 68.3089 1.02283 68.3118C1.02283 68.3147 1.02283 68.3175 1.02283 68.3204C1.02283 68.3233 1.02283 68.3262 1.02283 68.329C1.02283 68.3319 1.02283 68.3348 1.02283 68.3377C1.02283 68.3405 1.02283 68.3434 1.02283 68.3463C1.02283 68.3492 1.02283 68.3521 1.02283 68.3549C1.02283 68.3578 1.02283 68.3607 1.02283 68.3636C1.02283 68.3665 1.02283 68.3694 1.02283 68.3722C1.02283 68.3751 1.02283 68.378 1.02283 68.3809C1.02283 68.3838 1.02283 68.3867 1.02283 68.3896C1.02283 68.3925 1.02283 68.3954 1.02283 68.3982C1.02283 68.4011 1.02283 68.404 1.02283 68.4069C1.02283 68.4098 1.02283 68.4127 1.02283 68.4156C1.02283 68.4185 1.02283 68.4214 1.02283 68.4243C1.02283 68.4272 1.02283 68.4301 1.02283 68.433C1.02283 68.4359 1.02283 68.4388 1.02283 68.4417C1.02283 68.4446 1.02283 68.4475 1.02283 68.4504C1.02283 68.4534 1.02283 68.4563 1.02283 68.4592C1.02283 68.4621 1.02283 68.465 1.02283 68.4679C1.02283 68.4708 1.02283 68.4737 1.02283 68.4766C1.02283 68.4796 1.02283 68.4825 1.02283 68.4854C1.02283 68.4883 1.02283 68.4912 1.02283 68.4941C1.02283 68.4971 1.02283 68.5 1.02283 68.5029C1.02283 68.5058 1.02283 68.5087 1.02283 68.5117C1.02283 68.5146 1.02283 68.5175 1.02283 68.5204C1.02283 68.5234 1.02283 68.5263 1.02283 68.5292C1.02283 68.5321 1.02283 68.5351 1.02283 68.538C1.02283 68.5409 1.02283 68.5439 1.02283 68.5468C1.02283 68.5497 1.02283 68.5527 1.02283 68.5556C1.02283 68.5585 1.02283 68.5615 1.02283 68.5644C1.02283 68.5673 1.02283 68.5703 1.02283 68.5732C1.02283 68.5761 1.02283 68.5791 1.02283 68.582C1.02283 68.585 1.02283 68.5879 1.02283 68.5909C1.02283 68.5938 1.02283 68.5967 1.02283 68.5997C1.02283 68.6026 1.02283 68.6056 1.02283 68.6085C1.02283 68.6115 1.02283 68.6144 1.02283 68.6174C1.02283 68.6203 1.02283 68.6233 1.02283 68.6262C1.02283 68.6292 1.02283 68.6321 1.02283 68.6351C1.02283 68.638 1.02283 68.641 1.02283 68.644C1.02283 68.6469 1.02283 68.6499 1.02283 68.6528C1.02283 68.6558 1.02283 68.6588 1.02283 68.6617C1.02283 68.6647 1.02283 68.6676 1.02283 68.6706C1.02283 68.6736 1.02283 68.6765 1.02283 68.6795C1.02283 68.6825 1.02283 68.6854 1.02283 68.6884C1.02283 68.6914 1.02283 68.6943 1.02283 68.6973C1.02283 68.7003 1.02283 68.7032 1.02283 68.7062C1.02283 68.7092 1.02283 68.7122 1.02283 68.7151C1.02283 68.7181 1.02283 68.7211 1.02283 68.7241C1.02283 68.7271 1.02283 68.73 1.02283 68.733C1.02283 68.736 1.02283 68.739 1.02283 68.7419C1.02283 68.7449 1.02283 68.7479 1.02283 68.7509C1.02283 68.7539 1.02283 68.7569 1.02283 68.7599C1.02283 68.7628 1.02283 68.7658 1.02283 68.7688C1.02283 68.7718 1.02283 68.7748 1.02283 68.7778C1.02283 68.7808 1.02283 68.7838 1.02283 68.7868C1.02283 68.7898 1.02283 68.7928 1.02283 68.7957C1.02283 68.7987 1.02283 68.8017 1.02283 68.8047H9.00499ZM9.00499 65.0953L16.9255 64.1052C16.282 58.9574 15.9638 53.9587 15.9638 49.1062H7.98168H-0.000476837C-0.000476837 54.6572 0.363537 60.3179 1.08447 66.0853L9.00499 65.0953ZM7.98168 49.1062H15.9638C15.9638 44.8289 16.7959 39.7712 18.6632 33.8578L11.0516 31.4542L3.43994 29.0505C1.2141 36.099 -0.000476837 42.8093 -0.000476837 49.1062H7.98168ZM11.0516 31.4542L18.9251 32.7664C19.0882 31.7879 19.719 30.2378 21.8123 28.1445L16.1681 22.5003L10.5239 16.856C6.81845 20.5614 4.03826 24.9806 3.17804 30.1419L11.0516 31.4542ZM16.1681 22.5003L21.8123 28.1445C24.8467 25.1101 27.5673 22.1667 29.9587 19.3154L23.8429 14.1859L17.727 9.0565C15.6842 11.4922 13.2882 14.0917 10.5239 16.856L16.1681 22.5003ZM23.8429 14.1859L27.6652 21.1934C29.8414 20.0064 32.7281 18.8379 36.4388 17.7556L34.2038 10.0927L31.9688 2.42985C27.4932 3.73524 23.4725 5.29557 20.0206 7.17844L23.8429 14.1859ZM34.2038 10.0927L36.3967 17.7678C38.279 17.23 39.746 16.9042 40.8456 16.7362C42.01 16.5583 42.4414 16.6087 42.3811 16.6008L43.4136 8.68568L44.446 0.770569C40.7277 0.285576 36.279 1.19825 32.011 2.41769L34.2038 10.0927ZM43.4136 8.68568L40.4491 16.0969C39.8403 15.8534 39.1438 15.4393 38.5092 14.7892C37.8729 14.1373 37.4662 13.4198 37.2304 12.7767C36.8033 11.6119 36.9996 10.8957 36.947 11.2108L44.8206 12.5231L52.6941 13.8353C52.9827 12.1038 53.115 9.72474 52.2189 7.28087C51.1947 4.48743 49.0939 2.36076 46.378 1.27443L43.4136 8.68568ZM44.8206 12.5231L36.9055 11.4907C36.9234 11.3536 36.9131 11.5968 36.5689 12.2975C36.2353 12.9767 35.6795 13.9006 34.8082 15.0855L41.239 19.8141L47.6699 24.5427C50.0442 21.3136 52.2147 17.5502 52.7357 13.5555L44.8206 12.5231ZM41.239 19.8141L44.3834 27.1509C49.2659 25.0583 52.4593 21.0003 53.3337 15.754L45.4602 14.4418L37.5866 13.1295C37.5724 13.2147 37.5659 13.1995 37.6012 13.1158C37.6384 13.0276 37.7051 12.9037 37.8086 12.772C37.9121 12.6403 38.016 12.547 38.0913 12.4911C38.1626 12.4382 38.1768 12.4422 38.0947 12.4773L41.239 19.8141ZM45.4602 14.4418L53.2873 16.0072C53.3712 15.5879 53.552 15.1124 54.4325 14.4602L49.6813 8.04612L44.9301 1.632C41.2057 4.3908 38.5725 8.17908 37.633 12.8763L45.4602 14.4418ZM49.6813 8.04612L50.25 16.008C51.0129 15.9535 53.9991 15.9396 59.7934 16.0274L59.9143 8.04612L60.0352 0.0648727C54.5731 -0.0178909 50.7374 -0.0318222 49.1125 0.0842438L49.6813 8.04612ZM59.9143 8.04612L59.7952 16.0274C62.4623 16.0672 64.4143 16.2154 65.7565 16.4183C66.4214 16.5188 66.8272 16.6168 67.0336 16.6784C67.2745 16.7502 67.068 16.7203 66.6524 16.4578L70.9148 9.70898L75.1772 2.96015C72.9188 1.53378 70.2366 0.949821 68.1426 0.633293C65.8179 0.281891 63.0798 0.110313 60.0334 0.0648499L59.9143 8.04612ZM70.9148 9.70898L66.2753 16.2043C68.2369 17.6055 69.8198 19.3953 71.0499 21.6797L78.0779 17.8954L85.106 14.1111C82.7545 9.74406 79.562 6.07626 75.5544 3.21363L70.9148 9.70898ZM78.0779 17.8954L71.0916 21.7563C72.917 25.0594 74.8685 28.4851 76.9453 32.0329L83.834 28.0005L90.7227 23.9681C88.7063 20.5234 86.8204 17.2123 85.0643 14.0345L78.0779 17.8954ZM83.834 28.0005L76.864 31.8908C78.0696 34.0507 78.8633 37.0618 78.7949 41.3027L86.776 41.4314L94.7571 41.5601C94.8593 35.2269 93.6917 29.284 90.804 24.1103L83.834 28.0005ZM86.776 41.4314H78.7939C78.7939 41.1421 78.8353 41.2577 78.6451 41.9747C78.4712 42.6299 78.1685 43.5497 77.6865 44.7735L85.1132 47.6991L92.5398 50.6248C93.6773 47.7373 94.7582 44.4267 94.7582 41.4314H86.776ZM85.1132 47.6991L77.6116 44.9713C76.5152 47.9863 75.5528 51.0097 74.7261 54.0411L82.427 56.1414L90.1279 58.2416C90.8361 55.6449 91.6645 53.0401 92.6147 50.4269L85.1132 47.6991ZM82.427 56.1414L89.4345 59.9636C91.0601 56.9834 92.3931 54.1532 93.1424 51.6556L85.4969 49.362L77.8514 47.0683C77.5773 47.9818 76.8638 49.6711 75.4195 52.3191L82.427 56.1414ZM85.4969 49.362L93.0694 51.8861C93.1731 51.5752 93.0849 52.0309 92.4905 52.6848C91.7539 53.4949 90.4307 54.3709 88.6673 54.5065L88.0551 46.5479L87.443 38.5892C81.2531 39.0654 78.7653 44.3149 77.9243 46.8378L85.4969 49.362ZM88.0551 46.5479L81.4775 51.07C81.6086 51.2606 81.904 51.7986 82.1003 52.9767L89.9738 51.6644L97.8474 50.3521C97.3615 47.437 96.3778 44.564 94.6328 42.0258L88.0551 46.5479ZM89.9738 51.6644L82.1003 52.9767C82.3802 54.656 82.5033 56.1319 82.5033 57.4205H90.4855H98.4677C98.4677 55.1275 98.2497 52.766 97.8474 50.3522L89.9738 51.6644ZM90.4855 57.4205L82.506 57.2159C82.4276 60.2704 82.1924 63.3766 81.7975 66.5355L89.718 67.5256L97.6385 68.5157C98.0964 64.8526 98.3728 61.222 98.465 57.6251L90.4855 57.4205ZM89.718 67.5256L81.7975 66.5355C81.443 69.3717 80.8218 71.8233 79.9889 73.9376L87.4156 76.8633L94.8423 79.7889C96.2265 76.275 97.1403 72.5015 97.6385 68.5157L89.718 67.5256ZM87.4156 76.8633L80.0253 73.8468C78.5408 77.4839 76.6909 80.8859 74.4736 84.064L81.0199 88.6312L87.5663 93.1985C90.4655 89.0429 92.8794 84.5995 94.8058 79.8797L87.4156 76.8633ZM81.0199 88.6312L74.4514 84.0958C71.7291 88.0385 69.5816 91.9186 68.2484 95.696L75.7755 98.3526L83.3026 101.009C84.016 98.9879 85.3648 96.3871 87.5884 93.1666L81.0199 88.6312ZM75.7755 98.3526L70.9862 91.9669C72.3919 90.9126 73.7543 90.6882 74.3621 90.6339C74.6997 90.6038 74.9557 90.6119 75.1034 90.6217C75.2545 90.6317 75.3444 90.647 75.3607 90.6498C75.3815 90.6535 75.2495 90.6305 74.9279 90.5284C74.6172 90.4298 74.1999 90.28 73.6633 90.062L70.659 97.4572L67.6547 104.852C69.2335 105.494 70.9441 106.084 72.6088 106.375C73.6885 106.564 77.3386 107.158 80.5648 104.738L75.7755 98.3526ZM70.659 97.4572L73.9444 90.1825C71.4121 89.0389 69.3026 88.1221 68.0667 87.7102L65.5425 95.2827L63.0183 102.855C63.0091 102.852 63.1049 102.885 63.3515 102.983C63.5823 103.074 63.8871 103.2 64.2751 103.364C65.0517 103.695 66.0795 104.147 67.3736 104.732L70.659 97.4572ZM65.5425 95.2827L58.7736 99.5132C59.738 101.056 61.0474 102.163 61.8296 102.784C62.7688 103.529 63.8626 104.269 65.0214 104.994L69.252 98.2247L73.4825 91.4558C72.5947 90.901 72.0469 90.5116 71.7497 90.2758C71.6048 90.161 71.5914 90.1391 71.6584 90.2061C71.6955 90.2432 71.7749 90.3252 71.8795 90.451C71.9816 90.5739 72.1382 90.7751 72.3113 91.0522L65.5425 95.2827ZM69.252 98.2247L65.23 105.12C65.9911 105.564 65.467 105.419 64.8169 104.501C64.4248 103.948 63.7746 102.808 63.6627 101.166C63.5412 99.3842 64.1098 97.8278 64.8872 96.7171L71.4265 101.295L77.9657 105.872C79.0416 104.335 79.7435 102.331 79.59 100.08C79.4461 97.9696 78.5987 96.339 77.8442 95.2737C76.4692 93.3326 74.5594 92.0797 73.2739 91.3299L69.252 98.2247ZM54.6699 22.6282L46.8427 21.0628C46.9171 20.6907 46.9842 20.6894 46.7391 21.1563C46.5149 21.5833 46.1275 22.2174 45.5059 23.0807L51.9837 27.7447L58.4615 32.4087C60.1222 30.1022 61.8886 27.2357 62.497 24.1936L54.6699 22.6282ZM51.9837 27.7447L45.5059 23.0807C45.313 23.3486 45.1599 23.5258 45.0547 23.6352C44.9499 23.7443 44.9055 23.7726 44.9301 23.7549C44.957 23.7356 45.0547 23.6698 45.2248 23.5985C45.3986 23.5255 45.6166 23.46 45.8663 23.4243L46.9951 31.3263L48.124 39.2282C52.8774 38.5491 56.2357 35.5002 58.4615 32.4087L51.9837 27.7447ZM46.9951 31.3263L42.5674 24.6847C41.6924 25.2681 40.9166 25.601 40.2309 25.7814L42.2623 33.5008L44.2937 41.2201C46.8486 40.5478 49.2279 39.4311 51.4228 37.9678L46.9951 31.3263ZM42.2623 33.5008L40.6179 25.6898C36.2519 26.609 33.245 29.4957 31.307 32.5411L38.0412 36.8265L44.7754 41.1119C45.002 40.756 45.0806 40.7407 44.9318 40.858C44.8527 40.9203 44.7207 41.0107 44.5347 41.0998C44.3465 41.1899 44.1335 41.264 43.9067 41.3117L42.2623 33.5008ZM38.0412 36.8265L31.1611 32.7794C29 36.4533 27.5269 40.3581 26.8419 44.4682L34.7155 45.7804L42.589 47.0927C42.9273 45.0629 43.6714 42.9984 44.9213 40.8736L38.0412 36.8265ZM34.7155 45.7804L26.8092 44.6823C26.4184 47.4961 25.8665 50.4608 25.1469 53.579L32.9247 55.3739L40.7024 57.1687C41.5178 53.6355 42.1598 50.2045 42.6217 46.8785L34.7155 45.7804ZM32.9247 55.3739L25.1574 53.5343C24.5143 56.2498 23.7071 58.3883 22.8187 60.0468L29.8548 63.8161L36.8909 67.5855C38.5607 64.4685 39.8002 60.9789 40.692 57.2135L32.9247 55.3739ZM29.8548 63.8161L33.0967 71.1103C36.6272 69.5412 38.3984 66.3421 39.2517 64.5287L32.0293 61.13L24.8069 57.7312C24.6412 58.0832 24.6065 58.0682 24.7699 57.8664C24.9218 57.6789 25.4963 57.0182 26.6129 56.5219L29.8548 63.8161ZM32.0293 61.13L39.3235 64.3718C39.3889 64.2247 39.3591 64.3198 39.2109 64.547C39.1128 64.6975 38.6255 65.442 37.6282 66.1543C36.4904 66.967 34.3229 67.9473 31.6255 67.3248C29.206 66.7664 27.8923 65.2508 27.4344 64.6401L33.8201 59.8508L40.2058 55.0615C39.492 54.1098 37.9119 52.3916 35.2152 51.7693C32.2406 51.0828 29.7854 52.1377 28.3491 53.1636C27.0534 54.0891 26.2569 55.1854 25.839 55.8262C25.3711 56.5438 25.0108 57.2677 24.7351 57.8881L32.0293 61.13ZM33.8201 59.8508L26.997 63.9934C27.6826 65.1226 28.0124 66.2889 28.0124 67.6535H35.9946H43.9768C43.9768 63.39 42.8569 59.3545 40.6431 55.7083L33.8201 59.8508ZM35.9946 67.6535H28.0124C28.0124 73.3113 30.8637 77.8631 34.7174 81.2196L39.9599 75.2004L45.2024 69.1812C44.4577 68.5326 44.1596 68.0788 44.0521 67.8741C43.9671 67.7124 43.9768 67.6701 43.9768 67.6535H35.9946ZM39.9599 75.2004L47.5606 77.6384C50.545 68.3341 52.3797 63.6255 53.1417 62.3047L46.2276 58.3159L39.3136 54.327C37.5173 57.4406 35.1735 63.9883 32.3592 72.7624L39.9599 75.2004ZM46.2276 58.3159L38.412 56.6938C37.4924 61.1246 36.4014 65.9939 35.1368 71.3049L42.9019 73.1538L50.667 75.0026C51.9607 69.569 53.0868 64.5463 54.0432 59.938L46.2276 58.3159ZM42.9019 73.1538L35.1436 71.2768C34.1255 75.4846 34.3304 80.5932 38.0241 84.6973C41.3314 88.3722 46.0723 89.6304 50.146 90.0482L50.9604 82.1077L51.7748 74.1672C50.6094 74.0476 49.9442 73.8567 49.6329 73.7345C49.3386 73.6189 49.5519 73.6418 49.8903 74.0178C50.0594 74.2057 50.2182 74.4374 50.3429 74.6994C50.4665 74.9591 50.5277 75.1874 50.5552 75.3488C50.6063 75.6493 50.523 75.598 50.6602 75.0308L42.9019 73.1538ZM50.9604 82.1077L55.9759 88.3173C57.4089 87.1599 58.9874 86.3152 60.7602 85.7612L58.3794 78.1424L55.9985 70.5236C52.3137 71.6751 48.9463 73.4739 45.9449 75.898L50.9604 82.1077ZM58.3794 78.1424L60.9035 85.7149C63.6985 84.7833 66.2856 83.0785 68.1484 80.4174C69.9638 77.824 70.6872 74.9015 70.828 72.1555L62.8563 71.7467L54.8846 71.3379C54.8549 71.9177 54.7468 71.724 55.0699 71.2625C55.2265 71.0387 55.419 70.8505 55.6086 70.7153C55.7894 70.5864 55.8966 70.556 55.8552 70.5698L58.3794 78.1424ZM62.8563 71.7467L70.8326 71.44C70.7621 69.6082 70.8666 68.3661 71.0154 67.59C71.1703 66.7823 71.303 66.8442 70.9964 67.2466L64.6471 62.4091L58.2978 57.5716C55.1416 61.7141 54.6972 67.2993 54.88 72.0535L62.8563 71.7467ZM64.6471 62.4091L70.9633 67.2898C71.9844 65.9683 73.574 64.3057 75.8868 62.3013L70.659 56.2693L65.4312 50.2372C62.6275 52.6672 60.2091 55.0978 58.3309 57.5284L64.6471 62.4091ZM70.659 56.2693V48.2871C67.4043 48.2871 64.6772 49.6835 62.7123 51.6483L68.3566 57.2926L74.0008 62.9368C73.7509 63.1867 73.3199 63.5374 72.6857 63.8193C72.0328 64.1095 71.3318 64.2514 70.659 64.2514V56.2693ZM68.3566 57.2926L62.3494 52.0363C62.5455 51.8121 63.172 51.15 64.3168 50.6593C65.6215 50.1002 67.206 49.9414 68.7586 50.385L66.5658 58.0601L64.3729 65.7351C69.2352 67.1243 72.8006 64.3353 74.3637 62.5489L68.3566 57.2926ZM66.5658 58.0601L64.4655 50.3592C65.0645 50.1958 66.1486 50.0398 67.4589 50.4089C68.8182 50.7918 69.7986 51.5649 70.396 52.273C70.9321 52.9083 71.1046 53.4159 71.1191 53.4584C71.1409 53.5219 71.0854 53.3761 71.0261 52.9255L63.1121 53.9668L55.1982 55.0081C55.4685 57.0623 56.1113 60.0988 58.1946 62.568C59.3677 63.9583 61.0143 65.1791 63.1304 65.7752C65.1975 66.3575 67.129 66.1801 68.666 65.761L66.5658 58.0601ZM63.1121 53.9668L71.0526 53.1524C70.796 50.65 70.9843 48.6514 71.4357 47.0462L63.7517 44.885L56.0677 42.7239C54.9842 46.5763 54.7461 50.6322 55.1716 54.7812L63.1121 53.9668ZM63.7517 44.885L71.6309 43.6073C71.0802 40.2109 70.3925 37.1538 69.5 34.5879L61.9609 37.2103L54.4218 39.8326C54.8937 41.1894 55.3999 43.2488 55.8725 46.1627L63.7517 44.885ZM61.9609 37.2103L68.3466 32.421C66.882 30.4681 65.0149 28.2365 62.7986 25.7542L56.8444 31.0704L50.8902 36.3867C52.9376 38.6798 54.4816 40.5414 55.5752 41.9995L61.9609 37.2103ZM56.8444 31.0704L62.9049 25.8757C62.0629 24.8934 60.5274 23.4563 58.1645 22.8141C55.5144 22.0938 53.0369 22.6946 51.1991 23.7899C49.5813 24.754 48.5427 26.0287 47.935 26.9025C47.284 27.8385 46.7794 28.8245 46.3818 29.7212C44.8854 33.0954 43.6332 38.1772 42.4773 44.2995L50.3209 45.7804L58.1644 47.2614C59.3109 41.1893 60.2972 37.7223 60.9754 36.1931C61.1213 35.864 61.1564 35.852 61.0411 36.0178C60.969 36.1215 60.462 36.8539 59.3719 37.5036C58.0616 38.2844 56.1078 38.7986 53.9774 38.2195C52.1341 37.7185 51.1142 36.6506 50.7839 36.2652L56.8444 31.0704ZM50.3209 45.7804L58.2862 46.2985C58.6217 41.1391 58.9987 37.2951 59.3966 34.6612C59.5972 33.3335 59.7788 32.4803 59.9123 31.9947C60.1304 31.2012 60.0511 31.9891 59.2021 33.034L53.007 28.0005L46.812 22.967C45.4087 24.6942 44.8017 26.7345 44.5188 27.7638C44.1513 29.1009 43.8586 30.6408 43.6115 32.2764C43.114 35.5692 42.7022 39.9328 42.3555 45.2623L50.3209 45.7804ZM53.007 28.0005L59.3477 32.8493C61.6931 29.7822 62.652 26.2063 62.652 22.6282H54.6699H46.6877C46.6877 23.0018 46.6396 23.1756 46.6289 23.21C46.6233 23.2282 46.6231 23.2239 46.6328 23.205C46.6427 23.1858 46.655 23.1665 46.6663 23.1518L53.007 28.0005ZM53.3908 94.771L55.3267 87.0272C54.9695 86.9379 54.6219 86.8037 54.271 86.6123L50.4488 93.6198L46.6265 100.627C48.1517 101.459 49.7655 102.093 51.4548 102.515L53.3908 94.771ZM50.4488 93.6198L54.271 86.6123C49.7552 84.1492 45.1248 85.8647 42.9246 86.8648L46.2276 94.1315L49.5307 101.398C50.0315 101.171 50.0335 101.242 49.6505 101.288C49.2363 101.338 48.027 101.391 46.6265 100.627L50.4488 93.6198ZM46.2276 94.1315L45.2376 86.211C42.9403 86.4981 41.3112 86.486 40.2248 86.3443L39.1924 94.2594L38.16 102.175C40.9963 102.544 44.0574 102.447 47.2177 102.052L46.2276 94.1315ZM39.1924 94.2594L40.6203 86.406C40.1177 86.3146 38.6872 85.8452 36.0764 84.3094L32.0293 91.1895L27.9822 98.0696C31.1701 99.9448 34.5151 101.522 37.7645 102.113L39.1924 94.2594ZM32.0293 91.1895L26.5926 97.0339C30.5094 100.677 35.0754 103.989 40.0547 104.819L41.3669 96.9456L42.6792 89.072C42.7459 89.0831 42.3127 89.0146 41.3025 88.3919C40.3217 87.7873 39.0456 86.8145 37.466 85.3451L32.0293 91.1895ZM41.3669 96.9456L40.0959 104.826C44.8558 105.594 50.5077 104.233 56.0223 102.307L53.3908 94.771L50.7592 87.2352C48.3255 88.085 46.402 88.6017 44.935 88.867C44.2098 88.9981 43.6542 89.0571 43.2476 89.0754C43.0475 89.0843 42.8974 89.0828 42.7924 89.0779C42.7405 89.0755 42.702 89.0724 42.6758 89.0698C42.6497 89.0672 42.6374 89.0652 42.638 89.0653L41.3669 96.9456ZM102.974 46.2921L97.1055 40.8814L90.5595 47.9813L98.7645 53.074L102.974 46.2921ZM140.836 9.06942L139.219 1.2528L139.059 1.28593L138.9 1.32558L140.836 9.06942ZM148.767 8.04612L148.298 0.0777359L148.291 0.0781479L148.284 0.0785751L148.767 8.04612ZM156.825 9.06942L159.691 1.6193L159.56 1.56898L159.427 1.5233L156.825 9.06942ZM158.36 11.8835L166.327 12.3814L166.328 12.3668L166.329 12.3522L158.36 11.8835ZM158.744 15.593L151.115 17.9404L158.44 41.7469L166.317 18.1172L158.744 15.593ZM160.663 10.9881V3.00596H160.331L160 3.03353L160.663 10.9881ZM164.756 12.2672L160.525 19.0361L160.616 19.093L160.709 19.1473L164.756 12.2672ZM167.186 15.2092L175.098 14.1543L175.088 14.0748L175.076 13.9955L167.186 15.2092ZM166.419 29.2797L158.569 27.8305L158.56 27.879L158.552 27.9276L166.419 29.2797ZM167.57 43.0942L171.677 49.9389L177.784 46.2747L174.837 39.7912L167.57 43.0942ZM162.709 46.5479L167.865 52.6414L167.997 52.5301L168.123 52.4132L162.709 46.5479ZM160.663 49.8736L152.836 48.3082L146.845 78.259L166.723 55.0684L160.663 49.8736ZM163.349 48.2108L160.384 40.7995V40.7995L163.349 48.2108ZM167.698 45.7804L175.65 46.4719L177.111 29.668L163.191 39.1927L167.698 45.7804ZM166.035 59.9787L158.115 58.9887L158.109 59.0331L158.104 59.0775L166.035 59.9787ZM164.884 73.0259L172.853 72.5769L172.85 72.517L172.846 72.4571L164.884 73.0259ZM165.907 86.4567L157.98 87.3894L157.993 87.5039L158.01 87.6181L165.907 86.4567ZM167.186 100.015H175.168V99.7387L175.149 99.4625L167.186 100.015ZM166.803 102.318L174.448 104.612L174.477 104.515L174.503 104.418L166.803 102.318ZM165.779 103.597V95.6149H165.282L164.789 95.6765L165.779 103.597ZM155.29 104.365L155.609 112.34V112.34L155.29 104.365ZM145.441 103.341L148.213 95.856L148.09 95.8103L147.965 95.7687L145.441 103.341ZM146.592 97.0735L154.293 94.9732L154.235 94.7595L154.165 94.5493L146.592 97.0735ZM145.441 92.4686L137.568 93.7809V93.7809L145.441 92.4686ZM144.418 87.7358L152.137 85.7044L144.734 57.5731L136.743 85.543L144.418 87.7358ZM143.65 91.4453L151.552 92.5742L151.557 92.5372L151.562 92.5003L143.65 91.4453ZM143.139 94.771L150.372 98.1466L150.833 97.1587L151.012 96.0833L143.139 94.771ZM142.499 98.9922L134.566 99.8737L142.499 98.9922ZM140.58 102.446L143.023 110.045L143.693 109.83L144.315 109.5L140.58 102.446ZM134.568 102.574L131.151 109.788L131.31 109.862L131.471 109.93L134.568 102.574ZM132.138 100.399H140.12V100.106L140.099 99.8139L132.138 100.399ZM132.01 87.9917L139.918 89.0823V89.0823L132.01 87.9917ZM134.057 75.4562L141.921 76.8239L142.039 76.1451V75.4562H134.057ZM138.534 74.305L141.058 81.8775L151.918 78.2575L144.767 69.3186L138.534 74.305ZM136.103 71.7467L141.473 65.8404V65.8404L136.103 71.7467ZM134.568 68.9326L126.765 67.252L126.515 68.4125L126.614 69.5955L134.568 68.9326ZM136.999 47.4433L129.03 46.9835L129.028 47.0199L129.026 47.0563L136.999 47.4433ZM115.382 53.0715L112.192 60.3887L116.744 62.373L120.536 59.1662L115.382 53.0715ZM151.837 69.828H159.819L144.264 67.3039L151.837 69.828ZM150.174 72.8979L143.788 68.1087L143.753 68.1556L143.718 68.2031L150.174 72.8979ZM149.406 75.9679L141.517 77.1816L141.529 77.2587L141.542 77.3355L149.406 75.9679ZM151.581 81.8519L144.632 85.7795L144.695 85.8919L144.763 86.0022L151.581 81.8519ZM154.779 87.7358L147.578 91.1798L162.229 84.8704L154.779 87.7358ZM152.348 78.3982L144.418 79.3046L144.419 79.3177L144.421 79.3308L152.348 78.3982ZM102.974 46.2921L108.842 51.7028C119.9 39.7092 128.494 30.7086 134.664 24.6428C137.761 21.5986 140.148 19.3911 141.876 17.9405C142.746 17.2103 143.339 16.7642 143.698 16.5224C144.258 16.145 143.821 16.5511 142.772 16.8132L140.836 9.06942L138.9 1.32558C137.084 1.77959 135.581 2.74131 134.777 3.28325C133.771 3.96089 132.702 4.79792 131.61 5.71458C129.415 7.55774 126.686 10.099 123.472 13.2586C117.022 19.6003 108.219 28.8273 97.1055 40.8814L102.974 46.2921ZM140.836 9.06942L142.453 16.886C144.512 16.4601 146.774 16.1637 149.25 16.0137L148.767 8.04612L148.284 0.0785751C145.132 0.269608 142.106 0.655464 139.219 1.2528L140.836 9.06942ZM148.767 8.04612L149.236 16.0145C151.208 15.8984 152.84 16.1385 154.223 16.6155L156.825 9.06942L159.427 1.5233C155.865 0.294853 152.124 -0.147316 148.298 0.0777359L148.767 8.04612ZM156.825 9.06942L153.96 16.5195C152.958 16.1341 151.786 15.2964 151.033 13.915C150.36 12.6806 150.377 11.6638 150.392 11.4148L158.36 11.8835L166.329 12.3522C166.429 10.6535 166.233 8.4429 165.048 6.27045C163.783 3.95097 161.801 2.43109 159.691 1.6193L156.825 9.06942ZM158.36 11.8835L150.394 11.3856C150.259 13.5429 150.445 15.7632 151.115 17.9404L158.744 15.593L166.373 13.2455C166.361 13.2056 166.291 12.9529 166.327 12.3814L158.36 11.8835ZM158.744 15.593L166.317 18.1172C166.923 16.2968 167.11 14.4508 167.11 12.7789H159.128H151.146C151.146 13.0317 151.131 13.178 151.123 13.2353C151.115 13.2937 151.119 13.2268 151.171 13.0688L158.744 15.593ZM159.128 12.7789H167.11C167.11 13.3566 166.981 15.051 165.572 16.6945C164.081 18.4337 162.241 18.8664 161.326 18.9427L160.663 10.9881L160 3.03353C158.061 3.19508 155.453 3.9689 153.451 6.30505C151.531 8.54544 151.146 11.0926 151.146 12.7789H159.128ZM160.663 10.9881V18.9703C160.586 18.9703 160.515 18.9642 160.454 18.9545C160.393 18.945 160.35 18.9334 160.328 18.9267C160.285 18.9131 160.35 18.9264 160.525 19.0361L164.756 12.2672L168.986 5.49839C166.584 3.99683 163.773 3.00596 160.663 3.00596V10.9881ZM164.756 12.2672L160.709 19.1473C160.875 19.2453 160.641 19.142 160.297 18.726C159.911 18.2584 159.459 17.4745 159.297 16.423L167.186 15.2092L175.076 13.9955C174.388 9.52681 171.265 6.83529 168.803 5.38715L164.756 12.2672ZM167.186 15.2092L159.274 16.2642C159.637 18.9831 159.503 22.7724 158.569 27.8305L166.419 29.2797L174.268 30.7288C175.381 24.7011 175.759 19.1102 175.098 14.1543L167.186 15.2092ZM166.419 29.2797L158.552 27.9276C157.434 34.4313 157.743 40.7654 160.303 46.3973L167.57 43.0942L174.837 39.7912C173.986 37.9188 173.527 35.0432 174.286 30.6318L166.419 29.2797ZM167.57 43.0942L163.463 36.2496C161.122 37.6542 158.979 39.1287 157.295 40.6826L162.709 46.5479L168.123 52.4132C168.657 51.9205 169.754 51.0926 171.677 49.9389L167.57 43.0942ZM162.709 46.5479L157.553 40.4544C155.234 42.4172 153.485 45.0604 152.836 48.3082L160.663 49.8736L168.49 51.4391C168.433 51.7242 168.32 52.0139 168.164 52.2663C168.015 52.5095 167.882 52.6271 167.865 52.6414L162.709 46.5479ZM160.663 49.8736L166.723 55.0684C166.502 55.3259 166.306 55.5031 166.173 55.6118C166.04 55.7208 165.948 55.7797 165.919 55.7972C165.875 55.8246 165.98 55.7552 166.313 55.622L163.349 48.2108L160.384 40.7995C158.684 41.4796 156.364 42.623 154.602 44.6789L160.663 49.8736ZM163.349 48.2108L166.313 55.622C168.311 54.8231 170.288 53.6799 172.205 52.3681L167.698 45.7804L163.191 39.1927C161.867 40.0981 160.945 40.5751 160.384 40.7995L163.349 48.2108ZM167.698 45.7804L159.746 45.0889C159.591 46.8678 159.059 51.433 158.115 58.9887L166.035 59.9787L173.956 60.9688C174.887 53.5161 175.464 48.6157 175.65 46.4719L167.698 45.7804ZM166.035 59.9787L158.104 59.0775C157.675 62.8558 157.357 65.8951 157.156 68.1671C156.982 70.1434 156.824 72.2285 156.922 73.5946L164.884 73.0259L172.846 72.4571C172.858 72.6293 172.85 71.943 173.059 69.5703C173.242 67.4933 173.543 64.606 173.966 60.88L166.035 59.9787ZM164.884 73.0259L156.914 73.4748C157.257 79.558 157.609 84.2363 157.98 87.3894L165.907 86.4567L173.835 85.5241C173.523 82.8784 173.193 78.6029 172.853 72.5769L164.884 73.0259ZM165.907 86.4567L158.01 87.6181C158.389 90.1976 158.799 94.4619 159.223 100.568L167.186 100.015L175.149 99.4625C174.721 93.2894 174.278 88.5146 173.804 85.2954L165.907 86.4567ZM167.186 100.015H159.204C159.204 99.8828 159.211 99.7919 159.215 99.7501C159.219 99.7074 159.221 99.6981 159.217 99.7265C159.212 99.7543 159.202 99.8094 159.183 99.8942C159.164 99.9787 159.138 100.086 159.102 100.218L166.803 102.318L174.503 104.418C174.845 103.167 175.168 101.625 175.168 100.015H167.186ZM166.803 102.318L159.157 100.024C159.161 100.011 159.376 99.2226 160.122 98.2908C161.004 97.1884 162.913 95.6149 165.779 95.6149V103.597V111.579C169.072 111.579 171.365 109.793 172.588 108.264C173.674 106.906 174.188 105.478 174.448 104.612L166.803 102.318ZM165.779 103.597L164.789 95.6765C162.369 95.979 159.118 96.2229 154.971 96.3887L155.29 104.365L155.609 112.34C159.99 112.165 163.732 111.897 166.769 111.518L165.779 103.597ZM155.29 104.365L154.971 96.3887C151.098 96.5437 149.054 96.1673 148.213 95.856L145.441 103.341L142.669 110.826C146.433 112.221 150.955 112.526 155.609 112.34L155.29 104.365ZM145.441 103.341L147.965 95.7687C148.653 95.9979 149.916 96.5643 151.015 97.8923C152.21 99.3361 152.656 101.009 152.656 102.414C152.656 103.654 152.319 104.516 152.181 104.831C152.028 105.183 151.908 105.335 151.962 105.258L145.441 100.655L138.92 96.0519C138.237 97.0196 136.691 99.3477 136.691 102.414C136.691 104.267 137.265 106.318 138.716 108.071C140.071 109.708 141.717 110.514 142.917 110.914L145.441 103.341ZM145.441 100.655L151.962 105.258C153.3 103.363 155.537 99.5328 154.293 94.9732L146.592 97.0735L138.891 99.1737C138.51 97.7739 138.751 96.6834 138.897 96.2298C139.032 95.8097 139.142 95.7373 138.92 96.0519L145.441 100.655ZM146.592 97.0735L154.165 94.5493C153.78 93.3942 153.499 92.2642 153.315 91.1563L145.441 92.4686L137.568 93.7809C137.895 95.743 138.381 97.6829 139.02 99.5977L146.592 97.0735ZM145.441 92.4686L153.315 91.1564C153.016 89.3619 152.621 87.544 152.137 85.7044L144.418 87.7358L136.698 89.7672C137.067 91.1681 137.355 92.5054 137.568 93.7809L145.441 92.4686ZM144.418 87.7358L136.743 85.543C136.291 87.1242 135.958 88.7417 135.738 90.3904L143.65 91.4453L151.562 92.5003C151.684 91.5907 151.862 90.7352 152.093 89.9287L144.418 87.7358ZM143.65 91.4453L135.748 90.3165C135.585 91.4586 135.424 92.5053 135.265 93.4588L143.139 94.771L151.012 96.0833C151.194 94.9902 151.374 93.8197 151.552 92.5742L143.65 91.4453ZM143.139 94.771L135.905 91.3955C134.631 94.126 134.249 97.024 134.566 99.8737L142.499 98.9922L150.432 98.1107C150.425 98.0417 150.424 97.9993 150.424 97.9806C150.425 97.9624 150.426 97.9638 150.423 97.9814C150.42 97.9994 150.415 98.0265 150.405 98.0592C150.395 98.0919 150.383 98.1219 150.372 98.1466L143.139 94.771ZM142.499 98.9922L134.566 99.8737C134.501 99.2871 134.553 98.2409 135.17 97.1303C135.766 96.0576 136.54 95.553 136.846 95.3913L140.58 102.446L144.315 109.5C146.07 108.571 147.889 107.107 149.125 104.883C150.382 102.622 150.668 100.232 150.432 98.1107L142.499 98.9922ZM140.58 102.446L138.138 94.8466C137.503 95.0506 137.181 95.0717 137.117 95.0731C137.079 95.0739 137.308 95.0662 137.666 95.2171L134.568 102.574L131.471 109.93C135.47 111.614 139.583 111.151 143.023 110.045L140.58 102.446ZM134.568 102.574L137.986 95.36C137.481 95.1211 137.653 95.1342 138.068 95.5059C138.37 95.7762 140.12 97.4182 140.12 100.399H132.138H124.156C124.156 104.062 126.311 106.408 127.423 107.403C128.649 108.5 130.035 109.259 131.151 109.788L134.568 102.574ZM132.138 100.399L140.099 99.8139C139.674 94.0348 139.702 90.6425 139.918 89.0823L132.01 87.9917L124.103 86.901C123.636 90.2868 123.75 95.1663 124.177 100.985L132.138 100.399ZM132.01 87.9917L139.918 89.0823C140.238 86.7623 140.898 82.7069 141.921 76.8239L134.057 75.4562L126.193 74.0885C125.169 79.9735 124.465 84.275 124.103 86.901L132.01 87.9917ZM134.057 75.4562H142.039C142.039 76.8629 141.626 78.4178 140.632 79.7939C139.697 81.0875 138.573 81.7795 137.818 82.1281C137.078 82.4693 136.478 82.5841 136.206 82.626C135.909 82.6717 135.729 82.6709 135.72 82.6709V74.6887V66.7066C134.803 66.7066 132.991 66.7731 131.128 67.6331C130.095 68.1096 128.763 68.9615 127.69 70.447C126.557 72.0149 126.075 73.7937 126.075 75.4562L134.057 75.4562ZM135.72 74.6887V82.6709C137.392 82.6709 139.238 82.4843 141.058 81.8775L138.534 74.305L136.01 66.7325C136.168 66.6798 136.234 66.6759 136.176 66.6838C136.119 66.6917 135.973 66.7066 135.72 66.7066V74.6887ZM138.534 74.305L144.767 69.3186C143.784 68.0895 142.674 66.9326 141.473 65.8404L136.103 71.7467L130.734 77.653C131.409 78.2664 131.92 78.815 132.301 79.2914L138.534 74.305ZM136.103 71.7467L141.473 65.8404C141.543 65.9039 141.782 66.139 142.024 66.5814C142.278 67.0476 142.47 67.6288 142.523 68.2698L134.568 68.9326L126.614 69.5955C126.904 73.0764 128.67 75.7765 130.734 77.6531L136.103 71.7467ZM134.568 68.9326L142.372 70.6133C143.693 64.4797 144.534 56.8395 144.972 47.8303L136.999 47.4433L129.026 47.0563C128.611 55.6137 127.832 62.2998 126.765 67.252L134.568 68.9326ZM136.999 47.4433L144.968 47.903C145.126 45.1639 144.942 40.6719 141.701 37.2866C137.92 33.3368 132.937 33.701 129.967 34.4742C126.915 35.2689 123.773 36.9649 120.753 38.9436C117.62 40.9958 114.101 43.7006 110.227 46.9767L115.382 53.0715L120.536 59.1662C124.124 56.1319 127.102 53.8694 129.501 52.2975C132.013 50.6519 133.439 50.0668 133.989 49.9235C134.623 49.7587 132.277 50.5279 130.17 48.3263C128.602 46.6892 129.128 45.2883 129.03 46.9835L136.999 47.4433ZM115.382 53.0715L118.571 45.7542C115.743 44.5215 111.973 42.4827 107.183 39.5101L102.974 46.2921L98.7645 53.074C103.867 56.2412 108.369 58.7221 112.192 60.3887L115.382 53.0715ZM151.837 69.828L144.264 67.3039C144.239 67.3781 144.134 67.6476 143.788 68.1087L150.174 72.8979L156.56 77.6872C157.749 76.1017 158.752 74.3246 159.409 72.3522L151.837 69.828ZM150.174 72.8979L143.718 68.2031C141.845 70.7795 141.014 73.9136 141.517 77.1816L149.406 75.9679L157.296 74.7541C157.361 75.1816 157.36 75.7226 157.214 76.3049C157.07 76.8817 156.831 77.3161 156.629 77.5928L150.174 72.8979ZM149.406 75.9679L141.542 77.3355C142.059 80.3063 143.133 83.127 144.632 85.7795L151.581 81.8519L158.53 77.9242C157.812 76.6541 157.436 75.552 157.27 74.6002L149.406 75.9679ZM151.581 81.8519L144.763 86.0022C145.825 87.7473 146.762 89.4732 147.578 91.1798L154.779 87.7358L161.98 84.2919C160.92 82.0758 159.725 79.8791 158.399 77.7016L151.581 81.8519ZM154.779 87.7358L162.229 84.8704C161.138 82.0353 160.524 79.5769 160.276 77.4656L152.348 78.3982L144.421 79.3308C144.855 83.0182 145.861 86.7849 147.329 90.6013L154.779 87.7358ZM152.348 78.3982L160.279 77.4919C159.969 74.7785 159.819 72.2255 159.819 69.828H151.837H143.855C143.855 72.8882 144.046 76.0487 144.418 79.3046L152.348 78.3982Z" fill="#231F20" mask="url(#path-1-outside-1_109_746)"/>
</svg>
